<?xml version="1.0" encoding="UTF-8"?>
<svg version="1.1" viewBox="0 0 1600 344" width="1280" height="1280" xmlns="http://www.w3.org/2000/svg">
<path transform="translate(23.1 14.9)" d="m0 0c1.1-0 2.2-0.01 3.34-0.01h3.71 3.91c3.6-0.01 7.19-0.01 10.8-0.01 3.87 0 7.74 0 11.6-0.01 7.59-0.01 15.2-0.01 22.8-0.01h18.5c17.5-0.01 35-0.02 52.4-0.02h2.85 2.86c15.3 0 30.6-0.01 45.9-0.02 15.7-0.01 31.4-0.02 47.1-0.02 8.82 0 17.6 0 26.4-0.01 7.51-0.01 15-0.01 22.5-0.01 3.83 0.01 7.67 0.01 11.5 0 4.15-0.01 8.3-0.01 12.4 0 1.22 0 2.44-0.01 3.7-0.01 1.11 0 2.21 0.01 3.35 0.01h2.9c2.28 0.25 2.28 0.25 4.28 2.25 0.25 2.25 0.25 2.25 0.24 5.12 0.01 1.09 0.01 2.18 0.02 3.3-0.01 1.82-0.01 1.82-0.02 3.66v3.86c0.01 3.55 0 7.1-0.01 10.6-0.01 3.89-0.01 7.77 0 11.6 0 7.54-0.01 15.1-0.03 22.6-0.01 8.72-0.01 17.4-0.01 26.2-0.01 23-0.04 46.1-0.07 69.1-0.04 51.4-0.08 103-0.12 156h-318c-1.01-3.03-1.13-5.04-1.13-8.21 0-1.08 0-2.17-0.01-3.29 0.01-1.19 0.01-2.39 0.01-3.62v-3.85c-0.01-3.52-0.01-7.05 0-10.6 0-3.8 0-7.6-0.01-11.4v-22.3-18.1-2.61-5.24c0-16.4 0-32.8 0.01-49.2v-42.2c-0.01-16.3-0.01-32.7-0.01-49v-5.22-2.59-18.1-22.1c0.01-3.76 0.01-7.52 0-11.3 0-4.06 0.01-8.13 0.01-12.2 0-1.2 0-2.4-0.01-3.64 0.01-1.08 0.01-2.16 0.01-3.28v-2.84c0.25-4.1 2.63-3.24 6.18-3.24z" fill="#F5662B"/>
<path transform="translate(185 84.1)" d="m0 0c5.17 2.18 10.2 4.57 15.2 7.06 0.68 0.34 1.36 0.68 2.07 1.02 3.38 1.7 6.5 3.45 9.43 5.86-1.5 4.66-4.88 5.86-9 8 5.78 4.03 11.8 7.63 17.9 11.1 3.32 1.87 6.59 3.79 9.8 5.85 3.14 2.13 3.14 2.13 6.31 3.06v2c2.97 0.99 2.97 0.99 6 2v2c0.64 0.18 1.28 0.36 1.93 0.55 1.24 0.38 1.24 0.38 2.51 0.76 1.23 0.37 1.23 0.37 2.49 0.74 0.69 0.31 1.37 0.62 2.07 0.95l1 3c1.08 0.15 1.08 0.15 2.18 0.31 3.13 0.76 5.28 1.97 8.01 3.69 3.34 2.11 3.34 2.11 6.81 4v2c0.98 0.22 1.96 0.44 2.97 0.66 4.73 1.35 8.44 3.96 12.5 6.71 4.25 2.88 8.38 5.61 13 7.79 3.53 1.84 3.53 1.84 4.53 4.84h2v2c-5.87 0.17-11.7 0.3-17.6 0.38-1.99 0.04-3.98 0.08-5.97 0.15-17.3 0.51-27-2.58-41-12.8-3.35-2.33-6.9-4.18-10.5-6.09-3.15-1.72-6.18-3.57-9.22-5.47-5.04-3.13-10.1-6.12-15.3-9.04-7.79-4.42-15.6-8.92-23.1-13.9-2.98-1.57-4.91-1.1-8.07-0.14-3.46 1.44-6.56 3.36-9.73 5.35-2.29 1.45-4.62 2.78-7 4.08-7.36 4.06-14.5 8.39-21.4 13.2-2.29 1.41-4.59 2.37-7.11 3.3l3 9-2 2c2.24 0.23 2.24 0.23 4.13-2 0.61-0.66 1.23-1.32 1.87-2v3c0.99-1.49 0.99-1.49 2-3 3.04-0.37 3.04-0.37 6.91-0.37h2.06c1.44 0.01 2.88 0.01 4.32 0.03 2.2 0.02 4.41 0.02 6.61 0.02 10.8 0.04 10.8 0.04 13.1 2.32 0.23 2.7 0.23 2.7 0.2 6.1-0.01 1.82-0.01 1.82-0.02 3.67-0.03 1.91-0.03 1.91-0.05 3.85-0.01 1.28-0.02 2.56-0.03 3.88-0.03 3.16-0.06 6.33-0.1 9.5-28.9 2.22-28.9 2.22-34-1v8h2c0.99-1.49 0.99-1.49 2-3l1 1c1.61-0.1 3.21-0.25 4.81-0.44 17.9-1.75 17.9-1.75 24.2 2.44v3l4 1c-0.99 0.33-1.98 0.66-3 1l-2-1v-2c-2.48 0.49-2.48 0.49-5 1 1.21 0.46 1.21 0.46 2.44 0.94 2.56 1.06 2.56 1.06 3.56 2.06 0.09 1.92 0.11 3.85 0.1 5.78-0.01 1.17-0.01 2.34-0.01 3.55-0.01 1.23-0.02 2.46-0.03 3.73 0 1.24-0.01 2.47-0.01 3.74-0.01 3.07-0.03 6.13-0.05 9.2-3.32 1.99-5.8 2.23-9.64 2.19-1.07 0-2.14-0.01-3.24-0.02-1.67-0.02-1.67-0.02-3.37-0.05-1.13-0.01-2.25-0.02-3.41-0.02-2.78-0.03-5.56-0.06-8.34-0.1-1.82-3.38-2.2-5.52-2.06-9.38 0.08-4.01-0.09-7.68-0.94-11.6h-1v-5h-2v6l-1-3h-2c0.23 1.07 0.45 2.14 0.69 3.25 0.31 3.75 0.31 3.75-0.82 6.19-1.87 1.56-1.87 1.56-4.37 1.93-2.5-0.37-2.5-0.37-5.5-2.37h-3v3l4 1c-2.97 0.33-5.94 0.66-9 1v2c-3 1-3 1-5.69-0.32-0.76-0.55-1.52-1.11-2.31-1.68v-2c-0.86 0.03-1.71 0.07-2.6 0.1-6.78 0.16-11.4-0.08-17.4-3.1-3.68-0.89-3.68-0.89-7-1l-2 2c0.41 2.78 0.41 2.78 2 5 1.99 1.01 3.99 2.01 6 3-1.2 2.49-2.45 4.68-4 7v3c-2.65 1.46-3.89 2-7 2l-1-2h-2l1 3-1 2h-2v-5l-1 3h-2c-0.5-3.47-0.5-3.47-1-7 0.04 1.28 0.08 2.56 0.13 3.87 0.07 2.18 0.07 2.18-0.13 4.13l-2 2c-0.5-0.99-0.5-0.99-1-2l-2 2-1-5h-2l-2-11h-3v-2h-2l-1-5-2 3v-2h-2c-0.33 1.81-0.67 3.62-1 5.44-0.28 1.51-0.28 1.51-0.56 3.05-0.47 2.25-0.47 2.25-0.44 3.51-1.49 0.99-1.49 0.99-3 2-1.76-1.76-1.25-4.36-1.37-6.75-0.48-6.89-1.47-13.7-3.63-20.2l-2-1c-0.08-2.25-0.14-4.5-0.19-6.75-0.03-1.26-0.07-2.51-0.1-3.8 0.3-3.6 0.66-5.02 3.29-7.45h3l2-4c0.99 0.33 1.98 0.66 3 1v-2h-3v-5c0.56 0.35 1.11 0.7 1.69 1.06 2.85 1.16 4.4 0.75 7.31-0.06l-5-1c0.5-0.99 0.5-0.99 1-2h3l-2-4c25.1-14.7 25.1-14.7 35.2-20.2 2.4-1.33 4.69-2.66 6.88-4.31 2.42-1.8 4.96-2.97 7.69-4.26 4.53-2.21 8.46-4.57 12.3-7.79 2.48-1.81 5.15-3.03 7.91-4.39 2.4-1.4 4.76-2.86 7.13-4.32 4.72-2.88 9.44-5.53 14.4-7.93 4.42-2.14 7.88-4.39 11.4-7.75l-2-1v-2c-0.93-0.27-1.86-0.54-2.81-0.82-3.04-1.13-4.09-1.88-6.19-4.18 2.38-1.19 4.77-2.39 7.15-3.58 1.79-0.89 3.57-1.79 5.35-2.69 5.3-2.68 10.6-5.2 16-7.62 2.43-1.05 2.43-1.05 4.52-2.32 3.84-1.58 7.54 0.77 11.2 2.27z" fill="#F5662B"/>
<path transform="translate(401 108)" d="m0 0c0.96-0.01 1.92-0.01 2.91-0.02 1.05 0 2.11-0.01 3.19-0.01 1.11-0.01 2.22-0.01 3.37-0.02 3.68-0.02 7.36-0.03 11-0.04 1.25-0.01 2.51-0.01 3.81-0.01 5.96-0.02 11.9-0.04 17.9-0.05 6.88 0 13.8-0.03 20.6-0.07 5.97-0.04 11.9-0.05 17.9-0.05 2.53-0.01 5.06-0.02 7.6-0.04 3.55-0.02 7.09-0.02 10.6-0.01 1.05-0.02 2.09-0.03 3.17-0.04 8.45 0.06 15.2 2.42 21.3 8.51 1.06 2.75 1.06 2.75 2 6 0.67 1.26 1.36 2.5 2.06 3.75 2.39 4.76 2.79 8.96 2.94 14.2 0.02 0.73 0.04 1.45 0.06 2.21 0.38 15.8-0.15 28.8-8.75 42.5-10.6 10.6-23 14.5-37.3 17.3 1.08 0.86 1.08 0.86 2.18 1.74 7.56 6.06 14.9 12.2 22.1 18.8 3.58 3.22 7.3 6.22 11 9.23 3.65 3.02 7.14 6.19 10.6 9.4 2.16 1.99 2.16 1.99 5.1 3.85v2h-4v-2h-4l3 2c-4.52 0.22-9.03 0.38-13.6 0.49-1.54 0.05-3.07 0.11-4.6 0.19-12.7 0.63-12.7 0.63-17.9-2.59-2.47-2.25-4.68-4.61-6.91-7.09-1.98-1.37-3.98-2.71-6-4-2.31-1.83-4.53-3.76-6.75-5.69-0.62-0.53-1.23-1.06-1.86-1.6-3.57-3.09-7.09-6.23-10.6-9.4-4.39-3.99-8.94-7.75-13.6-11.5-2.25-1.84-2.25-1.84-4.25-3.84-2.03-0.37-2.03-0.37-4.35-0.42-0.85-0.04-1.71-0.07-2.58-0.11-0.89-0.04-1.78-0.07-2.7-0.1-0.89-0.04-1.79-0.08-2.72-0.12-2.21-0.09-4.43-0.17-6.65-0.25-0.79-3.41-1.08-6.38-0.88-9.87 0.05-0.88 0.1-1.77 0.15-2.68 0.08-1.37 0.08-1.37 0.16-2.77 0.06-0.93 0.11-1.86 0.16-2.82 0.13-2.29 0.27-4.57 0.41-6.86 1.1-0.01 1.1-0.01 2.21-0.02 6.93-0.06 13.9-0.13 20.8-0.22 3.56-0.04 7.12-0.08 10.7-0.11 4.11-0.03 8.21-0.09 12.3-0.14 1.27-0.01 2.54-0.01 3.84-0.02 9.23-0.15 18-1.16 25.2-7.49 5.77-7.48 4.67-18.1 4-27-0.3-1.68-0.62-3.35-1-5v-2c-29.4-0.33-58.7-0.66-89-1 0.01 8.14 0.02 16.3 0.03 24.7 0.01 5.15 0.01 10.3 0.02 15.4 0 8.17 0.01 16.4 0.02 24.5 0.01 6.59 0.02 13.2 0.02 19.8 0 2.52 0.01 5.03 0.01 7.55 0.01 3.52 0.01 7.04 0.01 10.6 0 1.05 0.01 2.11 0.01 3.19v2.89 2.52c-0.12 1.89-0.12 1.89-1.12 2.89-1.78 0.08-3.57 0.1-5.35 0.09h-3.27c-1.14-0.01-2.27-0.02-3.45-0.03-1.14 0-2.28-0.01-3.45-0.01-2.83-0.02-5.66-0.03-8.48-0.05-1-3-1.14-5-1.16-8.13-0.01-1.06-0.01-2.12-0.02-3.22-0.01-1.16-0.01-2.33-0.02-3.52 0-1.23-0.01-2.46-0.02-3.72-0.03-4.07-0.04-8.14-0.06-12.2 0-1.4-0.01-2.8-0.01-4.2-0.02-5.84-0.04-11.7-0.05-17.5-0.02-8.35-0.05-16.7-0.11-25.1-0.04-5.88-0.06-11.8-0.06-17.6-0.01-3.51-0.02-7.02-0.05-10.5-0.04-3.92-0.03-7.84-0.03-11.8-0.01-1.16-0.03-2.31-0.05-3.5 0.06-6.86 0.94-11.8 5.64-17 2.39-1.2 3.88-1.14 6.55-1.15z" fill="#6B615B"/>
<path transform="translate(898 142)" d="m0 0c1.09-0.01 2.17-0.02 3.29-0.03 1.75 0.01 1.75 0.01 3.53 0.02 1.81 0 1.81 0 3.66-0.01 2.56 0 5.12 0 7.69 0.02 3.89 0.01 7.78-0 11.7-0.02 2.49 0 4.98 0 7.48 0.01 1.15-0.01 2.3-0.01 3.49-0.02 8.98 0.08 18.2 1 25.7 6.42l2-6c5.65-0.08 11.3-0.13 17-0.17 1.92-0.01 3.84-0.03 5.76-0.06 2.78-0.03 5.56-0.05 8.33-0.06 0.85-0.02 1.69-0.04 2.56-0.05 11.6 0 20.1 4.15 28.9 11.4 1.8 2.33 2 4.06 2.5 6.94 0.47 0.76 0.95 1.52 1.43 2.31 3.36 5.77 3.82 11.8 3.79 18.4v2.19c0 2.36-0.01 4.72-0.03 7.08 0 1.64 0 3.29-0.01 4.94 0 4.31-0.02 8.63-0.05 12.9-0.02 4.41-0.03 8.82-0.04 13.2-0.02 8.64-0.05 17.3-0.09 25.9-3.96 0.06-7.92 0.09-11.9 0.12-1.13 0.02-2.25 0.04-3.42 0.05-1.61 0.01-1.61 0.01-3.26 0.02-0.99 0.01-1.99 0.02-3.01 0.04-2.43-0.23-2.43-0.23-4.43-2.23-0.28-2.96-0.28-2.96-0.32-6.81-0.01-0.7-0.02-1.4-0.03-2.12-0.03-2.31-0.05-4.63-0.07-6.95-0.02-1.6-0.04-3.21-0.06-4.82-0.05-4.23-0.09-8.46-0.12-12.7-0.04-4.31-0.1-8.62-0.15-12.9-0.25-22.6-0.25-22.6-0.25-27.7-6.77-5.7-6.77-5.7-31-3v79h-25c-1.16-3.48-1.1-6.13-1.07-9.8 0.01-1.03 0.01-1.03 0.01-2.08 0.02-1.49 0.03-2.98 0.04-4.47 0.02-2.35 0.04-4.71 0.05-7.07 0.03-6.7 0.08-13.4 0.14-20.1 0.04-4.1 0.06-8.2 0.07-12.3 0.01-1.57 0.02-3.13 0.04-4.69 0.03-2.19 0.04-4.37 0.04-6.56 0.01-1.24 0.02-2.48 0.03-3.77-0.38-3.41-0.92-4.77-3.35-7.15-3.83-1.28-7.41-1.13-11.4-1.1h-2.48c-2.6 0.01-5.21 0.02-7.82 0.04-1.77 0-3.54 0.01-5.31 0.01-4.33 0.01-8.67 0.03-13 0.05-1.19 3.74-1.18 7.45-1.21 11.3-0.01 1.1-0.01 1.1-0.03 2.22-0.03 2.41-0.06 4.82-0.08 7.24-0.02 1.67-0.04 3.35-0.06 5.02-0.06 4.41-0.11 8.81-0.16 13.2-0.05 4.5-0.1 9-0.16 13.5-0.1 8.82-0.21 17.6-0.3 26.5-3.8 0.06-7.59 0.09-11.4 0.12-1.08 0.02-2.16 0.04-3.27 0.05-1.03 0.01-2.06 0.02-3.13 0.02-0.95 0.01-1.9 0.02-2.89 0.04-2.33-0.23-2.33-0.23-4.33-2.23-0.22-2.88-0.31-5.67-0.31-8.55-0.01-0.88-0.02-1.77-0.03-2.68-0.02-2.94-0.03-5.87-0.03-8.81l-0.03-6.12c-0.02-4.29-0.03-8.57-0.03-12.9 0-5.48-0.04-11-0.09-16.4-0.03-4.22-0.03-8.44-0.04-12.7 0-2.02-0.01-4.04-0.03-6.06-0.03-2.83-0.03-5.67-0.01-8.5-0.02-0.83-0.03-1.66-0.05-2.51 0.08-6.05 1.71-10.2 5.65-14.8 3.51-2.81 6.08-3.38 10.5-3.39z" fill="#6B615B"/>
<path transform="translate(120,55)" d="m0 0v2c7.43 0.99 7.43 0.99 15 2v1c0.75-0.02 1.5-0.05 2.27-0.07 0.98-0.02 1.97-0.04 2.98-0.05 0.97-0.03 1.95-0.05 2.95-0.08 2.82 0.2 4.41 0.75 6.8 2.2-1.07 0.05-2.15 0.1-3.25 0.15-1.44 0.07-2.88 0.15-4.31 0.23-0.71 0.03-1.41 0.06-2.14 0.09-4.66 0.26-8.91 0.81-13.3 2.53l-2 4h12l-8-1c5.53-3.07 10.8-3.3 17-3l2 2-5 1 13 4 1-2c0.99 1.48 0.99 1.48 2 3-4.5 4-4.5 4-9 4 0.5 1.48 0.5 1.48 1 3-0.57 0.39-1.13 0.77-1.71 1.17-0.74 0.52-1.47 1.04-2.23 1.58-1.09 0.77-1.09 0.77-2.21 1.55-2.06 1.89-2.48 2.97-2.85 5.7 1.49 0.5 1.49 0.5 3 1h-3c0.57 2.87 0.86 3.86 3 6l-3 2 8 4v2l4 2c-3.71 2.13-7.43 4.24-11.2 6.31-4.75 2.63-9.45 5.34-14.1 8.07-0.83 0.47-1.65 0.95-2.5 1.44-2.4 1.4-4.79 2.79-7.19 4.18-0.97 0.56-0.97 0.56-1.96 1.14-6.33 3.67-6.33 3.67-12.6 7.42-2.06 1.22-4.13 2.37-6.23 3.5-4.32 2.38-8.47 4.99-12.6 7.63-6.63 4.2-13.4 8.05-20.3 11.8-5.28 2.9-10.4 5.97-15.3 9.49 0.96 2.33 0.96 2.33 4 4-0.97-0.02-1.94-0.04-2.94-0.06-2.93-0.3-2.93-0.3-4.06 1.06h7c-2.31 2.06-3.56 2.96-6.69 3.25-2.31-0.25-2.31-0.25-3.31-1.25l-1 3h3v2h-3c-0.37 0.96-0.37 0.96-0.75 1.94-1.25 2.06-1.25 2.06-3.31 2.68-0.64 0.13-1.28 0.25-1.94 0.38-1.5 3-1.09 5.79-1.06 9.12 0.01 1.29 0.02 2.57 0.02 3.89 0.02 0.99 0.03 1.97 0.04 2.99l2-1c3.33 14.4 3.35 28.4 3.19 43.1-0.02 2.33-0.03 4.67-0.04 7-0.04 5.64-0.09 11.3-0.15 16.9h-2c-0.22 6.28-0.22 6.28 2 12 0.12 3.25 0.12 3.25 0 6l-2 1v-4h-3v-18l2 1c0.76-17.1 1.22-33.9 0-51l-1 6h-1v-15h-2c-0.5 0.99-0.5 0.99-1 2-0.37-2.67-0.69-5.33-1-8-0.12-0.96-0.24-1.91-0.36-2.9-0.9-8.71-0.08-16.5 1.36-25.1 3.87 1.88 3.87 1.88 5 3v-6h-2l-1-2-2 2v-12c-0.18-0.94-0.36-1.89-0.54-2.86-0.22-1.14-0.43-2.28-0.65-3.45-0.22-1.13-0.44-2.26-0.67-3.43-0.16-3.79 0.5-5.33 2.86-8.26h2v-8l2 1c0.06 3.08 0.09 6.17 0.12 9.25 0.02 0.87 0.04 1.75 0.06 2.64 0 0.85 0.01 1.69 0.02 2.56 0.01 0.78 0.02 1.55 0.03 2.35-0.26 2.47-1.07 4.03-2.23 6.2v2h2l2 3 2 1c-0.06 1.11-0.12 2.23-0.19 3.38 0.06 1.19 0.13 2.39 0.19 3.62l3 2v-2c2.97-0.99 2.97-0.99 6-2v-2c1.13-0.41 2.27-0.82 3.44-1.25 3.66-1.32 3.66-1.32 4.5-3.94 0.02-0.6 0.04-1.19 0.06-1.81l-1 1c-2.97-1.12-5.33-2.22-8-4h-3c0.13-0.74 0.27-1.48 0.4-2.24 1.21-6.91 2.08-13.8 2.6-20.8l2 1 3-9h2c2.09-3.4 2.18-6.05 2-10l-2 4h-2l-1 2h-2l-1 4c-0.74-0.78-1.48-1.57-2.25-2.38-2.72-2.85-2.72-2.85-6.75-4.62v-18h-2c-1.35-2.71-1.07-5.01-1-8 0.99-0.5 0.99-0.5 2-1v-1h-2c0.86-12.7 0.86-12.7 3-17 2.12-0.88 2.12-0.88 4-1v-2h-4c0-2 0-2 1-3l-4-2 1-4 6 3v-2c4.45-0.49 4.45-0.49 9-1l1-3c21.4-1.42 42.6-0.86 64 0z" fill="#F3662B"/>
<path transform="translate(1080,142)" d="m0 0c7.91-0.07 15.8-0.12 23.7-0.16 3.68-0.01 7.35-0.03 11-0.07 3.55-0.03 7.1-0.05 10.7-0.05 2-0.01 3.99-0.04 5.99-0.06 9.25 0 17.8 0.82 25.5 6.34 0.71 0.5 1.42 0.99 2.15 1.5 3.04 2.38 4.67 3.77 5.91 7.5 0.7 0.64 1.4 1.28 2.12 1.94 0.62 0.68 1.24 1.36 1.88 2.06-0.38 2.12-0.38 2.12-1 4l2 2c0.32 1.82 0.32 1.82 0.41 4.04 0.06 1.23 0.06 1.23 0.12 2.48 0.05 1.32 0.05 1.32 0.09 2.67 0.04 0.9 0.08 1.81 0.12 2.75 0.29 7.69 0.44 15.4 0.26 23.1-0.03 1.26-0.03 1.26-0.05 2.55-0.07 2.8-0.16 5.59-0.26 8.39-0.02 0.87-0.05 1.75-0.07 2.65-0.33 7.83-1.99 14.6-7.62 20.4-11 9.57-21.5 11.2-35.6 11.2-1.67 0.01-1.67 0.01-3.38 0.02-2.35 0.01-4.71 0.02-7.07 0.02-3.57 0.01-7.14 0.04-10.7 0.07-2.3 0.01-4.6 0.01-6.9 0.02-1.58 0.02-1.58 0.02-3.19 0.04-12.7-0.04-24.5-2.89-33.9-11.7-3.35-3.53-5.24-7.25-7.19-11.7h-1c-0.63-13.4-0.58-24.4 8.25-35.4 7.08-7.35 14.3-11.2 24.6-11.8 3.15-0.06 6.29-0.06 9.44-0.03 1.15 0.01 2.29 0.01 3.46 0.01 3.62 0.01 7.24 0.04 10.8 0.07 2.47 0.01 4.93 0.01 7.4 0.02 6.01 0.02 12 0.06 18 0.1-0.16 0.73-0.33 1.46-0.49 2.21-0.47 2.56-0.63 4.84-0.61 7.43 0.01 0.85 0.01 1.69 0.01 2.55 0.01 0.87 0.02 1.73 0.03 2.62 0 0.89 0.01 1.77 0.01 2.68 0.01 2.17 0.03 4.34 0.05 6.51h-1.86c-6.41 0.02-12.8 0.08-19.2 0.15-2.39 0.03-4.78 0.04-7.17 0.05-3.44 0-6.88 0.05-10.3 0.09-1.07 0-2.14 0-3.24-0.01-6.12 0.1-6.12 0.1-11.4 3.1-1.94 2.76-2.67 4.61-3.15 7.93-0.14 0.89-0.28 1.77-0.43 2.68-0.08 0.66-0.17 1.33-0.26 2.01h2c0.9 0.96 0.9 0.96 1.81 1.94 3.5 3.29 7.42 3.18 12.1 3.21 1.41 0 1.41 0 2.85 0.01 1.01 0.01 2.01 0.01 3.05 0.01 1.56 0 1.56 0 3.16 0.01 2.21 0 4.41 0.01 6.62 0.01 3.36 0 6.73 0.02 10.1 0.03 2.15 0.01 4.29 0.01 6.44 0.01 1 0.01 2.01 0.01 3.04 0.02 8.67 0.07 8.67 0.07 15.9-4.25 0.36-2.02 0.36-2.02 0.4-4.37 0.05-1.36 0.05-1.36 0.11-2.74 0.02-0.98 0.05-1.96 0.08-2.97 0.05-1.51 0.05-1.51 0.09-3.05 0.07-2.13 0.12-4.27 0.17-6.4 0.09-3.26 0.21-6.52 0.33-9.78 0.06-2.07 0.11-4.14 0.16-6.21 0.04-0.97 0.08-1.95 0.13-2.95 0.06-4.23-0.12-6.87-2.13-10.6-5.46-3.09-11-2.62-17.2-2.6-1.36-0.01-2.72-0.03-4.08-0.04-3.57-0.04-7.14-0.05-10.7-0.06-3.65-0.01-7.29-0.04-10.9-0.08-7.15-0.06-14.3-0.1-21.4-0.11-1.28-3.83-1.15-7.45-1.12-11.4-0.01-1.14-0.01-1.14-0.02-2.31 0-0.74 0.01-1.48 0.01-2.25v-2.03c0.14-2.09 0.6-3.95 1.13-5.97zm86 18 1 2z" fill="#6B605B"/>
<path transform="translate(705,142)" d="m0 0c7.91-0.07 15.8-0.12 23.7-0.16 3.68-0.01 7.35-0.03 11-0.07 3.55-0.03 7.1-0.05 10.7-0.05 2-0.01 3.99-0.04 5.99-0.06 10.8 0 20 1.58 28.6 8.34 1.88 2.25 1.88 2.25 3 4 0.99 0.5 0.99 0.5 2 1v2h2c1 3 1 3 1 7 0.47 1.62 0.95 3.24 1.42 4.86 2.83 10.5 2.88 20.8 2.64 31.6-0.04 1.68-0.07 3.36-0.09 5.04-0.12 10.9-0.54 21.3-8.02 29.9-10.8 10.2-22.5 11.9-36.9 11.9-1.11 0.01-2.22 0.01-3.37 0.01-2.34 0.01-4.67 0.01-7.01 0.01-3.55-0.01-7.09 0.02-10.6 0.04h-6.85c-1.57 0.02-1.57 0.02-3.17 0.03-12.3-0.08-23.9-2.73-33.1-11.3-3.74-4.04-6.09-7.9-7.93-13.1h-1c-0.56-14.3 1.15-26.2 11-37.1 8.95-8.69 19.2-9.2 31.2-9.09 1.15 0.01 2.29 0.01 3.46 0.01 3.62 0.01 7.24 0.04 10.8 0.07 2.47 0.01 4.93 0.01 7.4 0.02 6.01 0.02 12 0.06 18 0.1-0.16 0.73-0.33 1.46-0.49 2.21-0.47 2.56-0.63 4.84-0.61 7.43 0.01 0.85 0.01 1.69 0.01 2.55 0.01 0.87 0.02 1.73 0.03 2.62 0 0.89 0.01 1.77 0.01 2.68 0.01 2.17 0.03 4.34 0.05 6.51-0.9 0.01-0.9 0.01-1.83 0.02-6.27 0.06-12.6 0.15-18.8 0.24-2.34 0.04-4.69 0.06-7.03 0.09-3.37 0.03-6.73 0.08-10.1 0.14-1.57 0.01-1.57 0.01-3.17 0.02-7.05 0.05-7.05 0.05-13 3.49-1.86 3.98-2.66 7.64-2 12 3.71 3.92 7.11 4.84 12.4 5.13 0.82 0.01 1.63 0.01 2.48 0.02 0.93 0 1.87 0.01 2.83 0.01 1 0.01 2 0.01 3.03 0.01 1.56 0 1.56 0 3.15 0.01 2.19 0 4.39 0.01 6.59 0.01 3.34 0 6.68 0.02 10 0.03 2.14 0.01 4.28 0.01 6.41 0.01 1.49 0.01 1.49 0.01 3.01 0.02 5.69-0.02 10.7-0.37 16.1-2.25 0.92-2.77 1.15-4.52 1.19-7.39 0.02-0.89 0.03-1.77 0.05-2.68 0.05-4.04 0.09-8.07 0.11-12.1 0.02-2.13 0.04-4.25 0.08-6.38 0.06-3.07 0.08-6.14 0.09-9.21 0.04-1.43 0.04-1.43 0.07-2.88-0.01-4.15-0.27-6.75-2.26-10.4-5.45-3.12-11-2.64-17.2-2.62-1.36-0.01-2.72-0.03-4.08-0.04-3.57-0.04-7.14-0.05-10.7-0.06-3.65-0.01-7.29-0.04-10.9-0.08-7.15-0.06-14.3-0.1-21.4-0.11-1.27-2.55-1.03-4.16-0.88-7.01 0.05-0.98 0.1-1.97 0.15-2.99 0.05-1.03 0.11-2.06 0.17-3.12 0.05-1.05 0.1-2.09 0.16-3.16 0.13-2.57 0.26-5.15 0.4-7.72z" fill="#6B615B"/>
<path transform="translate(594 142)" d="m0 0c1.3-0 2.59-0.01 3.93-0.01 2.73-0.01 5.47-0.01 8.2 0 3.48 0 6.96-0.02 10.4-0.04 3.35-0.02 6.7-0.01 10-0.01 1.24-0.01 2.48-0.02 3.75-0.03 9.73 0.05 18 1.24 26 7.27 0.88 0.65 1.77 1.31 2.68 1.99 5.13 4.47 6.65 7.43 7.45 14.1 0.49 1.28 1.01 2.55 1.56 3.81 3.28 8.53 1.43 15.9-2.02 24.1-3.97 7.85-9.53 12.6-17.5 16-0.78 0.35-1.56 0.69-2.36 1.05-5.41 1.41-10.7 1.2-16.3 1.15-1.21-0.01-2.43-0.01-3.68-0.01-3.86-0.01-7.72-0.04-11.6-0.06-2.62-0.01-5.24-0.02-7.87-0.03-6.42-0.02-12.8-0.06-19.2-0.1-1.62-3.24-1.19-6.76-1.19-10.3-0.01-0.76-0.03-1.52-0.04-2.3 0-0.75 0-1.49-0.01-2.25 0-0.68 0-1.35-0.01-2.04 0.3-2.6 1.25-4.7 2.25-7.1 0.63 0 1.26-0.01 1.9-0.01 6.56-0.04 13.1-0.11 19.7-0.2 2.44-0.02 4.89-0.05 7.33-0.06 3.52-0.02 7.03-0.07 10.6-0.12h3.32c1.02-0.02 2.04-0.04 3.09-0.06 0.9-0.01 1.79-0.02 2.72-0.03 3.17-0.68 4.38-2.06 6.42-4.52 1.2-3.04 0.98-5.54 0.56-8.75-0.15-1.2-0.15-1.2-0.31-2.42-0.08-0.6-0.17-1.21-0.25-1.83-3.7-1.69-6.6-2.26-10.6-2.29-1.11-0.01-2.22-0.03-3.36-0.04-1.18 0-2.37 0-3.59-0.01-1.23 0-2.46-0.01-3.72-0.02-2.59-0.01-5.18-0.01-7.77-0.01-3.97 0-7.93-0.04-11.9-0.08-2.52 0-5.03-0.01-7.55-0.01-1.19-0.01-2.38-0.03-3.6-0.04-1.11 0-2.21 0.01-3.35 0.01h-2.94c-3.32 0.63-4.47 1.9-6.57 4.49-2.25 4.92-2.35 9.63-2.41 14.9-0.01 0.85-0.02 1.69-0.04 2.56-0.01 1.78-0.03 3.56-0.04 5.34-0.01 2.72-0.08 5.43-0.14 8.15-0.01 1.73-0.02 3.47-0.03 5.2-0.03 0.81-0.05 1.62-0.08 2.45 0.03 4.29 0.03 4.29 1.97 7.98 4.28 3.77 8.04 4.48 13.5 4.59 0.94 0.02 1.89 0.04 2.85 0.06 1.01 0.01 2.02 0.03 3.06 0.05 1.55 0.03 1.55 0.03 3.14 0.06 3.31 0.07 6.62 0.12 9.94 0.18 2.24 0.05 4.49 0.09 6.73 0.13 5.51 0.11 11 0.21 16.5 0.31 0.04 1.67 0.04 3.33 0 5l-1 1c-0.09 1.34-0.11 2.69-0.1 4.04 0 0.8 0 1.61 0.01 2.45 0.01 0.85 0.01 1.7 0.02 2.57 0.01 0.86 0.01 1.71 0.02 2.59 0.01 2.12 0.03 4.23 0.05 6.35-6.62 0.08-13.2 0.13-19.8 0.17-2.25 0.01-4.5 0.03-6.74 0.06-3.25 0.03-6.5 0.05-9.74 0.06-1.48 0.03-1.48 0.03-3 0.05-11.4 0-20.6-2.38-29.7-9.34-0.91-0.58-1.82-1.15-2.75-1.75-2.94-2.94-4.41-6.16-6.14-9.91-1.13-2.52-1.13-2.52-3.11-5.34-0.28-2.17-0.28-2.17-0.31-4.72-0.02-0.96-0.03-1.92-0.05-2.91 0-1.04-0.01-2.07-0.02-3.14 0-1.08-0.01-2.15-0.02-3.26-0.02-2.28-0.03-4.56-0.03-6.84-0.01-3.46-0.06-6.91-0.11-10.4-0.11-15.1 0.32-27.5 11.4-38.9 9.6-8.53 19.2-9.18 31.7-9.17z" fill="#6B605B"/>
<path transform="translate(185 84.1)" d="m0 0c5.17 2.18 10.2 4.57 15.2 7.06 0.68 0.34 1.36 0.68 2.07 1.02 3.38 1.7 6.5 3.45 9.43 5.86-1.5 4.66-4.88 5.86-9 8 5.78 4.03 11.8 7.63 17.9 11.1 3.32 1.87 6.59 3.79 9.8 5.85 3.14 2.13 3.14 2.13 6.31 3.06v2c2.97 0.99 2.97 0.99 6 2v2c0.64 0.18 1.28 0.36 1.93 0.55 1.24 0.38 1.24 0.38 2.51 0.76 1.23 0.37 1.23 0.37 2.49 0.74 0.69 0.31 1.37 0.62 2.07 0.95l1 3c1.08 0.15 1.08 0.15 2.18 0.31 3.13 0.76 5.28 1.97 8.01 3.69 3.34 2.11 3.34 2.11 6.81 4v2c0.98 0.22 1.96 0.44 2.97 0.66 4.73 1.35 8.44 3.96 12.5 6.71 4.25 2.88 8.38 5.61 13 7.79 3.53 1.84 3.53 1.84 4.53 4.84h2v2c-5.87 0.17-11.7 0.3-17.6 0.38-1.99 0.04-3.98 0.08-5.97 0.15-17.3 0.51-27-2.58-41-12.8-3.35-2.33-6.9-4.18-10.5-6.09-3.15-1.72-6.18-3.57-9.22-5.47-5.04-3.13-10.1-6.12-15.3-9.04-7.79-4.42-15.6-8.92-23.1-13.9-2.98-1.57-4.91-1.1-8.07-0.14-3.46 1.44-6.56 3.36-9.73 5.35-2.29 1.45-4.62 2.78-7 4.08-6.51 3.58-12.9 7.35-19 11.6-3.87 2.62-7.87 4.69-12.1 6.71-3 1.52-5.79 3.29-8.62 5.11-2.51 1.56-5.15 2.82-7.8 4.12-1.25 0.72-2.5 1.45-3.75 2.18-3.25 1.82-3.25 1.82-5.25 1.82v2c-9.54 5.72-20.4 4.44-31.1 4.25-1.92-0.02-3.85-0.04-5.78-0.06-4.7-0.04-9.39-0.11-14.1-0.19l-1-3c25.1-14.7 25.1-14.7 35.2-20.2 2.4-1.33 4.69-2.66 6.88-4.31 2.42-1.8 4.96-2.97 7.69-4.26 4.53-2.21 8.46-4.57 12.3-7.79 2.48-1.81 5.15-3.03 7.91-4.39 2.4-1.4 4.76-2.86 7.13-4.32 4.72-2.88 9.44-5.53 14.4-7.93 4.42-2.14 7.88-4.39 11.4-7.75l-2-1v-2c-0.93-0.27-1.86-0.54-2.81-0.82-3.04-1.13-4.09-1.88-6.19-4.18 2.38-1.19 4.77-2.39 7.15-3.58 1.79-0.89 3.57-1.79 5.35-2.69 5.3-2.68 10.6-5.2 16-7.62 2.43-1.05 2.43-1.05 4.52-2.32 3.84-1.58 7.54 0.77 11.2 2.27z" fill="#FDFDFD"/>
<path transform="translate(1466,142)" d="m0 0c31.7-2.6 31.7-2.6 38.9 2.85 3.01 3.01 5.35 6.43 7.63 10 2.65 3.81 6.03 6.88 9.37 10.1 1.18 1.17 2.37 2.35 3.55 3.52 1.27 1.26 1.27 1.26 2.57 2.54l2.19-2.19c2.6-2.6 5.21-5.19 7.82-7.79l4.23-4.2c0.97-0.97 1.94-1.93 2.91-2.9 1.42-1.4 2.83-2.8 4.24-4.21 0.83-0.83 1.67-1.66 2.53-2.52 2.21-2.21 2.21-2.21 4.08-5.19 2.7-0.27 5.16-0.35 7.85-0.29 0.78 0 1.55 0.01 2.35 0.01 2.47 0.02 4.95 0.05 7.42 0.09 1.68 0.02 3.36 0.03 5.04 0.04 4.11 0.04 8.23 0.09 12.3 0.15-3.76 4.4-7.55 8.77-11.4 13.1-1.67 1.9-1.67 1.9-3.19 4.13-0.7 0.87-0.7 0.87-1.42 1.76h-2c-0.26 0.58-0.51 1.16-0.78 1.75-1.33 2.45-2.82 4.17-4.74 6.18-0.69 0.74-1.39 1.47-2.1 2.22-0.72 0.76-1.45 1.51-2.19 2.29-1.07 1.12-1.07 1.12-2.16 2.27-9.59 10.1-9.59 10.1-12.9 12.8-1.32 1.37-1.32 1.37-1.01 3.19 1.27 3.22 3.55 5.26 5.99 7.61 0.52 0.51 1.03 1.02 1.56 1.54 1.65 1.62 3.31 3.24 4.96 4.85 2.17 2.12 4.33 4.24 6.48 6.36 0.52 0.51 1.05 1.03 1.59 1.56 3.39 3.36 6.6 6.83 9.7 10.5 3.62 4.19 7.52 8.13 11.4 12.1 0.63 0.67 1.27 1.34 1.92 2.03 0.57 0.6 1.14 1.19 1.72 1.8 1.83 2.17 3.21 4.45 4.61 6.91-4.68 0.22-9.35 0.39-14 0.49-1.59 0.05-3.18 0.11-4.76 0.19-13.2 0.63-13.2 0.63-18.3-2.65-2.28-2.24-4.19-4.33-5.89-7.03v-2c-0.59-0.27-1.18-0.53-1.79-0.8-6.54-3.55-11.4-10.6-16.2-16.2-1.31-1.5-2.62-3-3.94-4.5-1.02-1.17-2.04-2.33-3.06-3.5-6.7 5.42-12.3 11.6-17.8 18.2-3.49 4.09-7.1 7.67-11.3 11.1-2.03 1.73-2.03 1.73-3.59 4.32-2.3 2.42-2.3 2.42-5.38 2.99-1.19-0.03-2.37-0.05-3.58-0.08-1.29-0.02-2.58-0.03-3.9-0.05-1.36-0.04-2.71-0.08-4.06-0.13-1.37-0.02-2.73-0.05-4.09-0.07-3.43-0.06-6.86-0.14-10.3-0.24h-2c-1.34-0.31-2.67-0.65-4-1 0.41-0.43 0.81-0.86 1.23-1.31 9.31-9.86 9.31-9.86 18.5-19.9 1.43-1.6 2.87-3.21 4.31-4.81 0.49-0.55 0.98-1.1 1.49-1.66 1.62-1.81 3.25-3.61 4.89-5.4 0.51-0.58 1.02-1.15 1.55-1.74 2.32-2.55 3.74-4.09 7.07-5.2 0.69-1.32 1.35-2.66 2-4 1.74-1.83 3.58-3.51 5.44-5.22 1.7-1.94 2.16-3.26 2.56-5.78 0.99 0.5 0.99 0.5 2 1-0.72-2.46-0.72-2.46-2-5-1.33-0.68-2.66-1.34-4-2-1.69-1.54-1.69-1.54-3.36-3.34-0.61-0.67-1.23-1.33-1.87-2.02-0.97-1.06-0.97-1.06-1.96-2.14-0.67-0.73-1.34-1.46-2.04-2.2-4.16-4.51-8.29-9.06-12.4-13.6-2-2.2-4.02-4.36-6.07-6.52-0.96-1.02-0.96-1.02-1.95-2.07-1.28-1.35-2.58-2.71-3.87-4.06-0.59-0.62-1.17-1.24-1.77-1.88-0.53-0.55-1.06-1.1-1.61-1.67-1.14-1.45-1.14-1.45-1.14-3.45z" fill="#6B615B"/>
<path transform="translate(325,30)" d="m0 0 4 2c-0.48 0.84-0.48 0.84-0.96 1.7-1.11 2.45-1.43 4.38-1.66 7.05-0.08 0.8-0.15 1.6-0.23 2.42-0.08 0.91-0.08 0.91-0.15 1.83l-5-1v2h6c-0.07 0.57-0.14 1.14-0.22 1.72-0.58 4.8-0.88 9.45-0.78 14.3-1.49 0.49-1.49 0.49-3 1 1.49 0.99 1.49 0.99 3 2 0.36 2.75 0.36 2.75 0.34 6.29v1.95c0 2.13-0.02 4.26-0.05 6.39 0 1.48-0.01 2.96-0.01 4.43-0.01 3.89-0.04 7.78-0.07 11.7-0.03 3.97-0.05 7.94-0.06 11.9-0.04 7.78-0.09 15.6-0.15 23.4l-4-2c-0.37 0.96-0.37 0.96-0.75 1.94-1.25 2.06-1.25 2.06-3.31 2.62-0.96 0.22-0.96 0.22-1.94 0.44-0.5 1.49-0.5 1.49-1 3-1.11-0.02-2.23-0.04-3.38-0.06-3.45-0.2-3.45-0.2-5.62 1.06l5 4 2-4c1.49 0.5 1.49 0.5 3 1 1.29 8.43 1.29 8.43 0 13l4-2c2.13 8.15 1.94 13.4-2 21v2l2-1c0.66-3.03 0.66-3.03 1-6 0.99-0.33 1.98-0.66 3-1v-10h3c-0.08 1.06-0.17 2.12-0.25 3.22-0.79 8.74-0.79 8.74-0.25 17.5 0.48 3.16 0.36 5.25-0.5 8.31h-2l-1-3v2c-3 1-6 2-9 3-1.07-2.3-2.06-4.64-3-7l1-2-1-3 4-1-4-1 1-3 5-1c-0.19-1.95-0.19-1.95-1-4-1.98-1.28-1.98-1.28-4-2 0.99-0.33 1.98-0.66 3-1 0.96-1.78 0.96-1.78 1-4-0.85-2.39-0.85-2.39-2.25-4.69-0.66-1.18-0.66-1.18-1.33-2.38-1.35-2.23-1.35-2.23-4.42-2.93-0.5 1.49-0.5 1.49-1 3-5.62 0.25-5.62 0.25-9-2h-3c-0.12-7.75-0.12-7.75 1-10l5 1c1.96-4.8 2.12-8.8 1.62-13.9-0.08-1.03-0.08-1.03-0.17-2.08-0.14-1.68-0.29-3.36-0.45-5.04-0.74 0.08-1.49 0.17-2.25 0.25-2.75-0.25-2.75-0.25-4.67-2.2-2.75-2.71-4.53-2.63-8.33-2.8-1.08-0.06-2.16-0.11-3.27-0.17-0.82-0.03-1.64-0.05-2.48-0.08v5l-8-2 2-2-2-2v-4h-3l-1-2c-2.02-1.13-2.02-1.13-4-2v-3h-2c-0.12-0.97-0.25-1.94-0.38-2.94-0.2-1.01-0.41-2.02-0.62-3.06-0.99-0.5-0.99-0.5-2-1l1-1-4-2v-2h-2c-0.59-1.36-0.59-1.36-1.19-2.75-1.89-3.39-3.67-5.04-6.81-7.25l2-2c-0.66-0.64-1.32-1.28-2-1.94-2-2.06-2-2.06-2-3.06l-10-1v-1c4.45-0.5 4.45-0.5 9-1v-2c-0.72-0.14-1.44-0.29-2.19-0.44-2.6-0.52-5.21-1.04-7.81-1.56v-2c-0.64-0.05-1.28-0.1-1.93-0.15-0.83-0.07-1.66-0.15-2.51-0.23-0.82-0.06-1.64-0.13-2.49-0.21-1.03-0.2-1.03-0.2-2.07-0.41l-1-2c4.18-0.99 8.2-1.2 12.5-1.32 1.05-0.03 1.05-0.03 2.13-0.06 2.23-0.06 4.46-0.12 6.69-0.18 1.52-0.05 3.04-0.09 4.56-0.13 3.71-0.11 7.42-0.21 11.1-0.31l1-2c3.06-0.62 3.06-0.62 6-1 0.5 1.48 0.5 1.48 1 3 0.78-0.19 1.57-0.37 2.38-0.56 4.66-0.57 8.98-0.04 13.6 0.56-0.5-0.99-0.5-0.99-1-2-6.18-2.01-11.8-2.25-18.3-2.16-0.98 0.01-1.96 0.01-2.97 0.02-3.12 0.01-6.24 0.04-9.36 0.08-4.08 0.03-8.16 0.07-12.2 0.09-1 0-2 0.01-3.03 0.01-10.4 0.02-20.8-0.46-31.1-1.04v-2l-2-1c20.6-2.74 41.3-3.19 62.1-2.96 5.43 0.04 10.5-0.16 15.9-1.04 2.44 0.44 2.44 0.44 4 1l1-2 15 1v-3c-0.94 0-1.89 0-2.86 0.01-8.98 0.02-18 0.03-27 0.04-4.62 0.01-9.24 0.01-13.8 0.03-39.3 0.09-39.3 0.09-56.3-1.08l1-3c24.4-0.33 48.8-0.66 74-1v-3-1h19c0.5 1.98 0.5 1.98 1 4h-5v2c5.28-1.04 10.2-2.35 15.2-4.34 1.79-0.66 1.79-0.66 4.73-1.22 0.68-0.15 1.36-0.29 2.06-0.44l1-2c1.81-0.38 1.81-0.38 4-0.56 2.79-0.07 2.79-0.07 5-1.44z" fill="#F3662B"/>
<path transform="translate(23.1 14.9)" d="m0 0c1.1-0 2.2-0.01 3.34-0.01h3.71 3.91c3.6-0.01 7.19-0.01 10.8-0.01 3.87 0 7.74 0 11.6-0.01 7.59-0.01 15.2-0.01 22.8-0.01h18.5c17.5-0.01 35-0.02 52.4-0.02h2.85 2.86c15.3 0 30.6-0.01 45.9-0.02 15.7-0.01 31.4-0.02 47.1-0.02 8.82 0 17.6 0 26.4-0.01 7.51-0.01 15-0.01 22.5-0.01 3.83 0.01 7.67 0.01 11.5 0 4.15-0.01 8.3-0.01 12.4 0 1.22 0 2.44-0.01 3.7-0.01 1.11 0 2.21 0.01 3.35 0.01h2.9c2.28 0.25 2.28 0.25 4.28 2.25 0.25 2.25 0.25 2.25 0.24 5.12 0.01 1.09 0.01 2.18 0.02 3.3-0.01 1.21-0.02 2.42-0.02 3.66v3.87c0.01 3.55 0 7.11-0.01 10.7-0.01 3.83-0.01 7.65 0 11.5 0 6.63-0.01 13.3-0.02 19.9-0.02 9.59-0.02 19.2-0.03 28.8 0 15.6-0.01 31.1-0.03 46.7-0.02 15.1-0.03 30.2-0.04 45.4v2.85c-0.01 7.36-0.01 14.7-0.02 22.1-0.02 36.1-0.06 72.2-0.09 108h-299v-2c27.5-0.98 54.9-1.15 82.4-1.14 5.86 0.01 11.7 0 17.6 0 9.81 0 19.6 0 29.4 0.01h33.9c9.78-0.01 19.6-0.01 29.3-0.01 5.8 0.01 11.6 0.01 17.4 0 5.44 0 10.9 0 16.3 0.01h5.95c9.36-0.01 18.6 0.02 28 0.9 6.38 0.55 12.3 0.32 18.6-0.77 1.37 0 2.75 0.02 4.12 0.06 3.48-0.05 5.06-0.18 7.88-2.06v-4l4-1c1.25-13.1 0.91-26 0.56-39.1-0.11-4.21-0.21-8.42-0.31-12.6-0.02-1.02-0.05-2.05-0.08-3.1-0.18-7.84-0.21-15.7-0.11-23.5 0-0.8 0.01-1.61 0.02-2.43 0-0.7 0.01-1.39 0.02-2.11-0.04-2.16-0.04-2.16-0.64-4.43-0.47-2.74-0.37-4.82-0.03-7.58 0.71-6.88 0.69-13.7 0.67-20.6-0.01-1.43-0.01-2.86-0.01-4.29 0-3.07-0.01-6.13-0.02-9.2-0.01-4.9-0.02-9.8-0.02-14.7-0.01-11.3-0.04-22.6-0.06-34-0.02-12-0.04-23.9-0.05-35.8 0-1.66-0.01-3.33-0.01-4.99-0.02-21.7 0.06-43.4 0.8-65.2 0.02-0.76 0.05-1.53 0.07-2.32 0.07-1.97 0.14-3.94 0.22-5.92-0.02-3.64-0.02-3.64-1.02-7.07-2.54-2.09-2.54-2.09-4-2-0.55 0.15-1.1 0.31-1.66 0.47-4.03 0.91-8.14 0.98-12.2 1.25-2.51 0.23-4.68 0.62-7.09 1.28h-2c4.13 1.94 7.77 2.37 12.3 2.62 1.88 0.12 1.88 0.12 3.8 0.23 1.43 0.07 1.43 0.07 2.89 0.15l-2 1c-0.66 2.53-0.66 2.53-1 5-0.99-0.33-1.98-0.66-3-1v-2c-0.85 0.17-1.7 0.34-2.58 0.52-3.55 0.5-6.66 0.41-10.2 0.1-1.14-0.09-2.28-0.18-3.45-0.27-2.73-0.35-2.73-0.35-3.73-1.35-2.71-0.1-5.39-0.14-8.1-0.14h-2.61c-2.9-0.01-5.81-0.01-8.71-0.01-2.08 0-4.15 0-6.23-0.01-5.66-0.01-11.3-0.01-17-0.01h-10.6c-12.4-0.01-24.8-0.02-37.2-0.02-11.5 0-23-0.01-34.5-0.02-9.9-0.02-19.8-0.02-29.7-0.02-5.9 0-11.8 0-17.7-0.01-30.9-0.24-30.9-0.24-61.8 1.63-5.84 0.58-11.1 0.63-16.9-0.39l-1-2c-0.99 0.49-0.99 0.49-2 1-0.99-0.33-1.98-0.66-3-1v2c-2.71 1.35-5.01 1.06-8 1 0 3.52 0.82 4.37 3 7-0.29 0.56-0.58 1.11-0.88 1.69-1.16 2.39-2.16 4.82-3.12 7.31l-2-1-2 3-1-2-3 2v-4h-2c0.16 0.63 0.32 1.26 0.49 1.91 0.69 4.2 0.62 8.29 0.59 12.5 0 0.95-0.01 1.89-0.01 2.87-0.01 2.04-0.02 4.09-0.03 6.14-0.02 3.25-0.03 6.49-0.03 9.74-0.03 9.22-0.06 18.4-0.11 27.7-0.03 5.64-0.04 11.3-0.05 16.9-0.01 2.14-0.02 4.29-0.03 6.44-0.02 3.01-0.03 6.02-0.03 9.03-0.01 0.88-0.02 1.76-0.03 2.67 0.01 5.1 0.68 9.19 2.24 14 0.16 3.5 0.16 3.5 0.06 7-0.08 4.82 0.04 9.27 0.94 14h-1c-1.87 20.9-2.43 41.7-2.64 62.7-0.04 4.36-0.1 8.72-0.16 13.1-0.28 20.4-0.18 40.8 0.8 61.2h-2l-1 2c-0.05-0.86-0.1-1.71-0.15-2.59-0.08-1.11-0.15-2.21-0.23-3.35-0.07-1.1-0.14-2.2-0.21-3.34-0.14-0.9-0.27-1.8-0.41-2.72l-2-1c-0.03-36-0.04-72.1-0.05-108 0-4.25-0.01-8.5-0.01-12.8v-2.56c0-13.7-0.01-27.4-0.02-41.2-0.01-14.1-0.01-28.1-0.02-42.2 0-8.69 0-17.4-0.01-26.1-0.01-5.95-0.01-11.9-0.01-17.8v-10.3c-0.01-3.72-0.01-7.44 0-11.2-0.01-1.1-0.01-2.19-0.01-3.33v-2.99-2.6c0.26-3.95 2.82-3.07 6.18-3.07z" fill="#F46129"/>
<path transform="translate(1220,108)" d="m0 0h25l-1 3c-0.03 2.03 0.01 4.06 0.09 6.09 0.04 1.2 0.08 2.39 0.13 3.62 0.05 1.25 0.1 2.5 0.16 3.79 0.04 1.25 0.08 2.5 0.13 3.79 0.13 6.46 0.13 6.46 1.49 12.7 14.8 0.33 29.7 0.66 45 1l-1 4c0.09 2.66 0.23 5.28 0.44 7.94 0.32 4.37 0.56 8.67 0.56 13.1-14.8 0.33-29.7 0.66-45 1-0.98 3.91-1.13 7.36-1.11 11.3v2.22c0 2.41 0 4.82 0.01 7.24 0 1.67 0.01 3.35 0.01 5.02 0 4.41 0.01 8.82 0.02 13.2 0.01 4.5 0.02 9 0.02 13.5 0.01 8.82 0.03 17.6 0.05 26.5h-25c-1.18-3.54-1.13-6.35-1.13-10.1v-2.17c-0.01-2.37-0.01-4.74 0-7.12 0-1.64 0-3.29-0.01-4.94 0-3.45 0-6.9 0.01-10.4 0.01-4.43 0-8.86 0-13.3-0.01-3.41-0.01-6.81 0-10.2 0-1.63 0-3.27-0.01-4.9 0-2.28 0.01-4.56 0.01-6.84v-3.94c0.13-3.15 0.13-3.15 1.13-6.15h-33c-1.27-3.81-1.15-7.4-1.12-11.4-0.01-0.75-0.01-1.51-0.02-2.28 0-0.74 0.01-1.48 0.01-2.24v-2.02c0.13-2.08 0.13-2.08 1.13-7.08h33c-0.49-5.94-0.49-5.94-1-12-0.08-2.6-0.13-5.21-0.12-7.81-0.01-1.21-0.01-2.41-0.01-3.65 0.13-3.54 0.13-3.54 1.13-10.5z" fill="#6A605B"/>
<path transform="translate(314,188)" d="m0 0c0.99 0.33 1.98 0.66 3 1v2h-2c0.5 5.44 0.5 5.44 1 11h2c0.5 2.47 0.5 2.47 1 5 0.99-0.5 0.99-0.5 2-1 1.16 3.47 1.07 6.36 1 10h2c2.26 4.5 2.27 8.75 2.23 13.7v2.53c0 1.76-0.01 3.53-0.02 5.29-0.02 2.67-0.02 5.34-0.02 8.01-0.04 17.3-0.04 17.3-1.19 24.5-0.99 0.5-0.99 0.5-2 1 0.45 3.29 0.91 6.56 1.56 9.81 0.44 2.19 0.44 2.19 0.44 4.19l2 2c0.15 2.74 0.19 5.38 0.12 8.12 0 0.76-0.01 1.51-0.02 2.29-0.03 1.86-0.06 3.73-0.1 5.59l-5-2-1 2-1-1c-0.5 1.49-0.5 1.49-1 3 0.96 0.37 0.96 0.37 1.94 0.75 2.06 1.25 2.06 1.25 2.81 3.13 0.25 2.12 0.25 2.12 0.25 6.12 1.49 0.5 1.49 0.5 3 1l-1 2c-1.75 0.56-1.75 0.56-4 1-0.91 0.19-1.81 0.37-2.75 0.56-0.74 0.15-1.49 0.29-2.25 0.44-2.06-2.81-2.06-2.81-4-6 0.5-1.49 0.5-1.49 1-3-3.4-1.33-5.95-2-9.62-2-3.48 0-4.43-0.48-7.38-2-2.66-0.47-5.31-0.73-8-1 0.5-1.49 0.5-1.49 1-3 2.48-0.5 2.48-0.5 5-1l1-5c-2.31-0.33-4.62-0.66-7-1-0.53-4.06-1-7.9-1-12h-2v-2c-5.23 0.57-5.23 0.57-10.4 1.62-1.62 0.38-1.62 0.38-3.62-0.62v2l4 1c-2.48 0.5-2.48 0.5-5 1v-7c2.97-0.99 2.97-0.99 6-2l-1-5h-3c-0.12 0.8-0.25 1.61-0.38 2.44-0.3 1.27-0.3 1.27-0.62 2.56-0.99 0.5-0.99 0.5-2 1-0.39-0.41-0.78-0.82-1.19-1.25-3.83-4.1-3.83-4.1-8.81-5.75l-2 2c-2.62-0.38-2.62-0.38-5-1l1-3h5v-21c1.98-0.5 1.98-0.5 4-1 0.03 2.38 0.05 4.75 0.06 7.12 0.01 0.67 0.02 1.34 0.03 2.02 0.02 4.07-0.3 7.87-1.09 11.9h5c0.5-2.92 1-5.83 1.5-8.75 0.14-0.82 0.29-1.65 0.43-2.5 0.14-0.8 0.27-1.6 0.41-2.42 0.19-1.1 0.19-1.1 0.38-2.22 0.39-2.97 0.29-5.9 0.17-8.88-0.16-6.26 0.09-10.7 3.11-16.2l1 2c0.78 0.25 1.57 0.5 2.38 0.75 3.57 1.7 4.18 3.64 5.62 7.25 0.69 2.38 0.69 2.38 1 4-6.29 2.43-6.29 2.43-10 1v2l4 1-3 3c3.74 2.49 5.74 2.21 10.2 2.12 1.27-0.01 2.54-0.03 3.85-0.05 0.98-0.02 1.95-0.05 2.96-0.07l1-5h2l2-4h2v4h2c1.46-6.01 1.74-11.3-1-17v4l-4-1h2l-1-2c-2.53-0.66-2.53-0.66-5-1v-2h2v-2c-0.99-0.33-1.98-0.66-3-1-1.75-2.19-1.75-2.19-3-5 0.38-3.06 0.38-3.06 1-6-0.36-2.28-0.36-2.28-1-4h-2c1.25-3.65 1.67-4.78 5-7 3.19-0.12 3.19-0.12 6 0v-3c4.5-2.25 8.08-2.17 13-2l1-2h-3l1-2h6v-5z" fill="#F3672B"/>
<path transform="translate(1343 142)" d="m0 0h3.88c1.4 0.01 2.79 0.01 4.18 0.02h4.29c3.75 0 7.51 0.01 11.3 0.02 3.84 0.02 7.67 0.02 11.5 0.02 7.51 0.02 15 0.03 22.6 0.05-0.16 0.56-0.33 1.12-0.49 1.69-0.55 2.51-0.62 4.73-0.61 7.3 0.01 0.93 0.01 1.87 0.01 2.83 0.01 0.97 0.02 1.94 0.03 2.93 0 0.99 0.01 1.97 0.01 2.98 0.01 2.43 0.03 4.85 0.05 7.27-1.11 0.01-1.11 0.01-2.24 0.02-6.99 0.06-14 0.13-21 0.22-3.59 0.04-7.18 0.08-10.8 0.11-3.47 0.03-6.93 0.07-10.4 0.12-1.97 0.02-3.93 0.03-5.89 0.04-1.81 0.03-1.81 0.03-3.64 0.06-1.59 0.02-1.59 0.02-3.2 0.03-3.31 0.46-5.2 1.44-7.88 3.4-7 12.5-3.34 35.7-3.56 49.5-0.04 2.58-0.09 5.16-0.13 7.73-0.11 6.26-0.21 12.5-0.31 18.8-3.79 0.09-7.58 0.14-11.4 0.19-1.08 0.03-2.16 0.05-3.28 0.08-1.03 0.01-2.06 0.02-3.12 0.03-1.43 0.02-1.43 0.02-2.89 0.04-0.77-0.11-1.54-0.22-2.34-0.34-2.26-3.38-2.25-4.53-2.24-8.5-0.01-1.13-0.01-2.26-0.01-3.42 0.01-1.23 0.01-2.45 0.02-3.71v-3.84c0-2.7 0.01-5.39 0.03-8.08 0.01-3.4 0.02-6.81 0.02-10.2 0-40.2 0-40.2 6.18-52.2h2c0.27-0.59 0.54-1.19 0.81-1.81 4.07-7.48 12.2-10.4 19.9-12.7 2.9-0.59 5.62-0.58 8.58-0.57z" fill="#6B615B"/>
<path transform="translate(95,245)" d="m0 0h163c2 4 2 4 1 25h-164c-2.14-4.27-2.3-7.31-2.25-11.9-0.01-0.7-0.02-1.4-0.02-2.13 0.01-4.37 0.59-6.74 2.27-10.9z" fill="#FDFDFD"/>
<path transform="translate(819,97)" d="m0 0h25l-1 3c-0.09 1.55-0.11 3.1-0.11 4.65v2.9c0.01 1.05 0.02 2.1 0.02 3.18 0.01 1.1 0.01 2.2 0.01 3.34l0.06 11c0.01 1.25 0.01 2.5 0.02 3.79 0.04 5.92 0.07 11.8 0.12 17.8 0.05 6.84 0.08 13.7 0.1 20.5 0.02 5.93 0.06 11.8 0.11 17.8 0.02 2.52 0.03 5.04 0.03 7.56 0.01 3.52 0.04 7.04 0.08 10.6-0.01 1.04-0.01 2.08-0.01 3.16 0.07 4.45 0.12 7.08 2.48 10.9 3.65 3.28 7 3.18 11.7 3.44 1.06 0.07 1.06 0.07 2.15 0.13 1.74 0.11 3.49 0.21 5.23 0.31 0.38 1.66 0.71 3.32 1 5l-1 1c-0.09 1.49-0.11 2.98-0.1 4.47 0.01 0.9 0.01 1.8 0.01 2.73 0.01 0.94 0.02 1.89 0.03 2.86 0 0.95 0.01 1.9 0.01 2.88 0.01 2.35 0.03 4.71 0.05 7.06-14.5 0.63-25.2-2.11-37.2-10.2-3.17-3.24-4.81-6.41-6.67-10.5-1.1-2.49-1.1-2.49-3.08-5.3-0.25-2.25-0.25-2.25-0.25-4.93 0-1.02-0.01-2.04-0.01-3.09 0.01-1.11 0.01-2.23 0.02-3.38 0-1.18-0.01-2.35-0.01-3.56 0-3.23 0-6.45 0.01-9.68 0.01-3.37 0.01-6.75 0.01-10.1 0-5.67 0.01-11.3 0.02-17 0.02-6.55 0.03-13.1 0.02-19.7 0-6.3 0.01-12.6 0.02-18.9v-8.05c0.01-3.74 0.01-7.48 0.02-11.2v-3.38c0.01-1.02 0.01-2.04 0.02-3.09v-2.68c0.13-2.25 0.13-2.25 1.13-5.25z" fill="#695F5A"/>
<path transform="translate(137,200)" d="m0 0h4c0.06 1.05 0.12 2.1 0.18 3.18 0.09 1.42 0.17 2.84 0.26 4.26 0.04 0.69 0.08 1.37 0.12 2.08 0.31 5.2 0.86 10.3 1.44 15.5h22v2c1.49 0.5 1.49 0.5 3 1 0.5 0.99 0.5 0.99 1 2-3.87 0.66-7.45 1.04-11.4 0.94-4.69-0.04-9.2 0.39-13.6 2.06-1.94 1.97-1.94 1.97-3 4h-2c0.31-1.18 0.31-1.18 0.62-2.38 0.19-1.29 0.19-1.29 0.38-2.62l-2-2c-1.49 0.5-1.49 0.5-3 1-1.16 0.29-2.31 0.58-3.5 0.88-3.34 1.07-4.26 1.66-6.5 4.12h-6v-4l-4-1-1 3c-6.4 1.23-6.4 1.23-9.44 0.06-0.77-0.52-0.77-0.52-1.56-1.06v-2c-4.03-0.34-4.03-0.34-8 0-2.37 2.75-3.34 5.46-4 9h-3l-1 3h-5v2l-1 3c-0.03 1.29-0.03 1.29 0.5 3.69 0.75 4.99 1.22 8.9-1.5 13.3h5c0.5-0.99 0.5-0.99 1-2l2 2c0.99-0.33 1.98-0.66 3-1v5c1.42 0.22 1.42 0.22 2.88 0.44 3.12 0.56 3.12 0.56 5.12 1.56v2h3c-0.5 1.49-0.5 1.49-1 3l3 2h-2v4c-1.18-0.22-1.18-0.22-2.38-0.44-4.52-0.7-9.06-1.14-13.6-1.56l-1 2-1-4c-0.39 0.65-0.78 1.29-1.19 1.96-1.81 2.04-1.81 2.04-4.19 2.61-0.86 0.04-1.73 0.08-2.62 0.12-2.99 0.15-5.13 0.35-8 1.31v-2h-2l1 5c1.48-0.99 1.48-0.99 3-2l5 5-1 2c-1.06-0.01-2.12-0.02-3.21-0.04-1.39 0-2.78-0.01-4.17-0.02-0.69-0.01-1.39-0.02-2.11-0.03-3.88-0.09-3.88-0.09-7.51 1.09v-2c-0.99-0.33-1.98-0.66-3-1v-2l-4-2v-4h-2c-1.19-7.96-1.58-16.3 1-24 0.22-1.89 0.41-3.79 0.56-5.69 0.09-0.99 0.17-1.99 0.26-3.01 0.06-0.76 0.12-1.52 0.18-2.3h-2c-0.5 2.47-0.5 2.47-1 5h-1l-1-10c-1.48 0.5-1.48 0.5-3 1-0.54-14.3-0.54-14.3 3-21 0.43-1.89 0.43-1.89 0.88-3.81 1.12-3.19 1.12-3.19 3.74-4.63 0.79-0.18 1.57-0.37 2.38-0.56v6h2l4-4c0.5 8.41 0.5 8.41 1 17h2l2 3 2-2h1l1-9h1c1.12 7.75 1.12 7.75 0 10h2l1-4c1 3 1 3 0 6h2v-5c0.99-0.33 1.98-0.66 3-1v3c0.6-0.33 1.2-0.66 1.81-1 2.19-1 2.19-1 5.19-1-0.5-1.98-0.5-1.98-1-4h2l0.94-1.88c0.68-1.37 1.37-2.74 2.06-4.12-0.93-0.31-1.86-0.62-2.81-0.94-2.07-0.68-4.13-1.37-6.19-2.06 0.5-1.49 0.5-1.49 1-3-0.5-1.49-0.5-1.49-1-3 1.56-1.12 1.56-1.12 4-2 3.4 0.75 6.54 1.83 9.8 3.04 3.42 1.03 6.51 1.37 10.1 1.58 1.15 0.08 2.3 0.15 3.49 0.23 1.3 0.08 1.3 0.08 2.63 0.15v2c3.91 1.47 3.91 1.47 8 2v-2l5-1v-4c2.52-0.9 3.57-1.19 6.06-0.06 0.96 0.52 0.96 0.52 1.94 1.06h3c1.6-3.51 2.22-6.14 2-10h2l1-3z" fill="#F3662B"/>
<path transform="translate(180,123)" d="m0 0c0.14 0.64 0.29 1.28 0.44 1.94 0.37 2.04 0.37 2.04 1.56 3.06l2 1v3c1.11-0.06 2.23-0.12 3.38-0.19 1.19 0.06 2.39 0.13 3.62 0.19 0.99 1.49 0.99 1.49 2 3h-2c2.99 3.34 5.93 5.15 10 7v3c-1.49 0.5-1.49 0.5-3 1 0.5 0.99 0.5 0.99 1 2-2.88-0.25-2.88-0.25-6-1-1.38-2.06-1.38-2.06-2-4-2.34 0.26-4.68 0.59-7 1-1.07 1.78-1.07 1.78-1 3 0.98 1.35 1.98 2.68 3 4l-2 3 4 2c-0.64 0.31-1.28 0.62-1.94 0.94-2 0.89-2 0.89-3.06 2.06-0.09 1.85-0.11 3.71-0.1 5.57 0.01 1.12 0.01 2.25 0.01 3.4 0.01 1.19 0.02 2.37 0.03 3.59 0 1.19 0.01 2.38 0.01 3.6 0.01 2.95 0.03 5.89 0.05 8.84 6.58 0.68 13.1 1.15 19.7 1.06 0.71 0 1.42-0.01 2.16-0.01 1.72-0.01 3.43-0.03 5.15-0.05 0.05-3.95 0.09-7.9 0.11-11.8 0.01-2.01 0.04-4.02 0.07-6.02 0-1.26 0.01-2.51 0.02-3.81 0.01-1.16 0.02-2.32 0.03-3.52 0.06-2.94 0.06-2.94-2.23-4.8l8 1v2h-2v26h2v2h2c-0.5 1.49-0.5 1.49-1 3-0.54-0.17-1.09-0.33-1.65-0.51-2.76-0.58-5.17-0.5-7.99-0.37-1.07 0.05-2.14 0.1-3.24 0.15-1.67 0.08-1.67 0.08-3.37 0.17-1.13 0.05-2.25 0.1-3.41 0.16-2.78 0.13-5.56 0.26-8.34 0.4l10 4v1l8 1v1c-0.69 0.03-1.38 0.05-2.1 0.08-3.11 0.11-6.22 0.23-9.34 0.36-1.09 0.04-2.17 0.08-3.3 0.12-1.03 0.04-2.07 0.08-3.13 0.12-0.96 0.04-1.92 0.08-2.91 0.11-2.19-0.03-2.19-0.03-3.22 1.21-0.05 2.1-0.04 4.21 0 6.31 0.05 6.62-0.32 13.1-1 19.7 0.76 0.29 1.53 0.58 2.31 0.88 2.69 1.12 2.69 1.12 5.69 3.12h-6l1 3c-0.99 0.33-1.98 0.66-3 1l-2 3c-3.12 0.69-3.12 0.69-6 1-0.19-0.63-0.39-1.25-0.59-1.9-0.26-0.82-0.52-1.63-0.79-2.48-0.25-0.81-0.51-1.62-0.77-2.46-0.75-2.32-0.75-2.32-2.85-4.16l1-1c0.09-1.93 0.11-3.86 0.1-5.79-0.01-1.16-0.01-2.33-0.01-3.54-0.01-1.23-0.02-2.46-0.03-3.73 0-1.24-0.01-2.47-0.01-3.75-0.01-3.06-0.03-6.13-0.05-9.19l-7-2c2.65-1.46 3.89-2 7-2v2h4c-0.99-0.33-1.98-0.66-3-1-0.39-0.66-0.78-1.32-1.19-2-2.31-2.55-4.22-2.66-7.58-2.91-0.73-0.03-1.47-0.06-2.23-0.09-0.72-0.03-1.43-0.06-2.17-0.09-5.57-0.09-11.4-0.01-16.8 1.09l-2 2-2-1c-0.89-3.64-1.24-6.43 0-10v2c4 0.95 7.72 1.12 11.8 1.1 1.29-0.01 2.59-0.01 3.92-0.01 1.35-0.01 2.71-0.02 4.06-0.03 1.38 0 2.75-0.01 4.13-0.01 3.35-0.01 6.71-0.03 10.1-0.05-0.11-0.93-0.11-0.93-0.22-1.87-0.63-5.77-0.88-11.4-0.78-17.2 0.05-2.65 0.05-5.29 0-7.94-2.67-2.67-10.4-1.23-14.2-1.24-2.22-0.01-4.43-0.04-6.64-0.07-1.41-0.01-2.81-0.01-4.21-0.02-1.28-0.01-2.56-0.02-3.88-0.03-1.01 0.12-2.02 0.24-3.06 0.36l-2 3c-0.5-1.49-0.5-1.49-1-3-0.99 1.32-1.98 2.64-3 4-0.99-0.33-1.98-0.66-3-1 0.99-1.32 1.98-2.64 3-4l-2-1c-0.33-1.67-0.67-3.33-1-5l-2-1c1.05-0.5 2.1-0.99 3.19-1.5 6.18-3.08 12-6.85 17.8-10.5 6.06-3.72 12.2-7.25 18.5-10.6 2.59-1.38 2.59-1.38 5.16-3.09 3.15-1.72 4.98-1.17 8.38-0.3z" fill="#F5662B"/>
<path transform="translate(1419,142)" d="m0 0h26l-1 4c-0.09 1.44-0.12 2.88-0.12 4.32v2.59c0 0.93 0 1.86 0.01 2.82v2.98c0 3.26 0 6.52 0.01 9.77 0 2.26 0.01 4.52 0.01 6.78 0 5.95 0.01 11.9 0.02 17.8 0.01 6.07 0.02 12.1 0.02 18.2 0.01 11.9 0.03 23.8 0.05 35.7-3.96 0.06-7.92 0.09-11.9 0.12-1.12 0.02-2.25 0.04-3.41 0.06-1.62 0.01-1.62 0.01-3.26 0.02-1 0.01-1.99 0.02-3.02 0.03-2.43-0.23-2.43-0.23-4.43-2.23-0.19-3.08-0.26-6.07-0.24-9.14 0-0.95-0.01-1.9-0.01-2.88 0-3.14 0.01-6.29 0.02-9.44v-6.54c0-4.58 0.01-9.17 0.02-13.8 0.02-5.87 0.03-11.7 0.02-17.6 0-4.51 0.01-9.02 0.02-13.5v-6.49c0.01-3.03 0.01-6.06 0.02-9.09v-2.71c0.01-0.83 0.01-1.66 0.02-2.51v-2.17c0.13-2.14 0.13-2.14 1.13-7.14z" fill="#6B615B"/>
<path transform="translate(336,18)" d="m0 0v311h-299v-2c27.5-0.98 54.9-1.15 82.4-1.13 5.87 0 11.7 0 17.6-0.01 9.8 0 19.6 0 29.4 0.01 11.3 0.01 22.6 0 33.9 0 9.77-0.01 19.6-0.01 29.3 0 5.81 0 11.6 0 17.4-0.01 5.45 0 10.9 0 16.3 0.01h5.96c9.36-0.01 18.6 0.03 28 0.9 6.38 0.55 12.4 0.33 18.6-0.77 1.38 0 2.75 0.02 4.12 0.06 3.48-0.05 5.06-0.18 7.88-2.06v-4l4-1c1.26-13.1 0.91-26 0.56-39.1-0.1-4.22-0.21-8.43-0.31-12.6-0.02-1.02-0.05-2.05-0.07-3.1-0.18-7.83-0.22-15.7-0.12-23.5 0.01-0.8 0.01-1.61 0.02-2.43 0.01-0.7 0.02-1.39 0.02-2.11-0.04-2.16-0.04-2.16-0.63-4.42-0.48-2.75-0.38-4.83-0.04-7.58 0.72-6.89 0.69-13.7 0.67-20.6 0-1.43-0.01-2.86-0.01-4.29 0-3.07-0.01-6.13-0.01-9.2-0.02-4.9-0.02-9.79-0.03-14.7-0.01-11.3-0.03-22.6-0.06-34-0.02-12-0.04-23.9-0.05-35.8 0-1.66 0-3.33-0.01-4.99-0.02-21.7 0.06-43.4 0.8-65.1 0.03-0.76 0.05-1.52 0.08-2.31 0.06-1.97 0.14-3.94 0.21-5.9-0.02-2.9-0.33-5.39-1.02-8.19 2-1 2-1 4-1z" fill="#F86728"/>
<path transform="translate(405,149)" d="m0 0c2.06 0.44 2.06 0.44 4 1-0.59 6.15-0.59 6.15-1 8-0.99 0.5-0.99 0.5-2 1h3c-0.38 1.94-0.38 1.94-1 4-0.99 0.5-0.99 0.5-2 1l-1 3h5c0.5 6.93 0.5 6.93 1 14 0.89-3.56 1.19-6.44 1.32-10.1 0.04-1.16 0.08-2.32 0.12-3.51 0.04-1.21 0.08-2.42 0.12-3.66 0.05-1.22 0.09-2.44 0.13-3.7 0.11-3.02 0.21-6.03 0.31-9.05h1c0.15 12.4 0.3 24.7 0.44 37.1 0.07 5.74 0.14 11.5 0.21 17.2 0.07 5.53 0.13 11.1 0.19 16.6 0.03 2.12 0.05 4.23 0.08 6.35 0.04 2.96 0.07 5.91 0.1 8.87 0.01 0.88 0.03 1.77 0.04 2.68 0.02 2.05-0.01 4.1-0.06 6.15-1 1-1 1-4.82 1.1-1.58-0.01-3.16-0.02-4.74-0.04-0.81 0-1.62-0.01-2.45-0.01-1.99-0.01-3.99-0.03-5.99-0.05-0.05-0.63-0.1-1.25-0.15-1.9-0.07-0.82-0.15-1.63-0.23-2.48-0.06-0.81-0.13-1.62-0.21-2.46-0.24-2.36-0.24-2.36-2.41-4.16-0.32-2.74-0.52-5.38-0.62-8.12-0.04-0.8-0.08-1.6-0.12-2.42-0.73-17.3-0.73-17.3-0.26-23.5l4-4-1-2c-0.08-1.38-0.11-2.75-0.1-4.13 0.01-1.21 0.01-1.21 0.01-2.44 0.01-0.85 0.02-1.69 0.03-2.55 0-0.85 0.01-1.7 0.01-2.58 0.01-2.1 0.03-4.2 0.05-6.3h1l1-22h1l1 11c3.01-4.84 3.47-9.05 3.79-14.7 0.21-2.29 0.21-2.29 1.21-3.29z" fill="#6C615C"/>
<path transform="translate(17,18)" d="m0 0h1l1 126v-124h4c0.29 1.2 0.58 2.39 0.88 3.62 0.65 2.68 1.39 5.1 2.37 7.69 0.25 0.89 0.49 1.78 0.75 2.69l-2 3c-0.38 1.66-0.73 3.32-1 5h-2c0.16 0.63 0.33 1.26 0.49 1.91 0.69 4.2 0.62 8.29 0.59 12.5 0 0.95 0 1.89-0.01 2.87 0 2.05-0.01 4.1-0.03 6.14-0.01 3.25-0.02 6.49-0.03 9.74-0.03 9.23-0.06 18.4-0.11 27.7-0.02 5.64-0.04 11.3-0.05 16.9-0.01 2.15-0.02 4.29-0.03 6.44-0.02 3.01-0.03 6.02-0.03 9.03-0.01 0.88-0.02 1.77-0.03 2.68 0.01 5.09 0.69 9.18 2.24 14 0.16 3.5 0.16 3.5 0.06 7-0.07 4.82 0.04 9.27 0.94 14h-1c-1.86 20.9-2.42 41.7-2.63 62.7-0.05 4.36-0.1 8.72-0.16 13.1-0.28 20.4-0.19 40.8 0.79 61.2h-2l-1 2c-0.05-0.85-0.1-1.71-0.15-2.59-0.07-1.1-0.15-2.21-0.23-3.35-0.06-1.1-0.13-2.2-0.21-3.34-0.13-0.9-0.27-1.79-0.41-2.72l-2-1v-281z" fill="#F3662B"/>
<path transform="translate(208,155)" d="m0 0 8 1v2h-2v26h2v2h2l-1 3c-0.54-0.17-1.09-0.33-1.65-0.51-2.76-0.58-5.17-0.5-7.99-0.37-1.07 0.05-2.14 0.1-3.24 0.15-1.67 0.08-1.67 0.08-3.37 0.17-1.69 0.08-1.69 0.08-3.41 0.16-2.78 0.13-5.56 0.26-8.34 0.4l10 4v1l8 1v1c-0.69 0.03-1.38 0.05-2.1 0.08-3.11 0.11-6.22 0.23-9.34 0.36-1.09 0.04-2.17 0.08-3.3 0.12-1.03 0.04-2.07 0.08-3.13 0.12-0.96 0.04-1.92 0.08-2.91 0.11-2.19-0.03-2.19-0.03-3.22 1.21-0.05 2.1-0.04 4.21 0 6.31 0.05 6.62-0.32 13.1-1 19.7 0.76 0.29 1.53 0.58 2.31 0.88 2.69 1.12 2.69 1.12 5.69 3.12h-6l1 3c-0.99 0.33-1.98 0.66-3 1l-2 3c-3.13 0.69-3.13 0.69-6 1-0.19-0.63-0.39-1.25-0.59-1.9-0.26-0.82-0.52-1.63-0.79-2.48-0.25-0.81-0.51-1.62-0.77-2.46-0.75-2.32-0.75-2.32-2.85-4.16l1-1c0.09-1.93 0.11-3.86 0.1-5.79-0.01-1.16-0.01-2.33-0.01-3.54-0.01-1.23-0.02-2.46-0.03-3.73 0-1.24-0.01-2.47-0.01-3.75-0.01-3.06-0.03-6.13-0.05-9.19l-7-2c2.65-1.46 3.89-2 7-2v2h4c-0.99-0.33-1.98-0.66-3-1-0.39-0.66-0.78-1.32-1.19-2-2.31-2.55-4.22-2.66-7.58-2.91-0.73-0.03-1.47-0.06-2.23-0.09-1.08-0.04-1.08-0.04-2.17-0.09-5.57-0.09-11.4-0.01-16.8 1.09l-2 2-2-1c-0.89-3.64-1.24-6.43 0-10v2c4 0.95 7.72 1.12 11.8 1.1 1.29-0.01 2.59-0.01 3.92-0.01 1.35-0.01 2.71-0.02 4.06-0.03 1.38 0 2.75-0.01 4.13-0.01 3.35-0.01 6.71-0.03 10.1-0.05l-1-10c0.99-0.33 1.98-0.66 3-1v3h2v-2c0.85-5.58 2.18-10.7 4-16 1.83 3.15 2.29 5.58 2.41 9.2 0.04 0.89 0.08 1.77 0.11 2.68 0.04 1.11 0.07 2.22 0.1 3.37 0.13 3.55 0.25 7.09 0.38 10.8h28c0.04-4.58 0.08-9.16 0.12-13.9 0.02-1.44 0.04-2.88 0.06-4.37 0.01-1.13 0.01-2.26 0.02-3.43 0.01-1.16 0.02-2.32 0.03-3.52 0.06-2.94 0.06-2.94-2.23-4.8z" fill="#F3662A"/>
<path transform="translate(260 316)" d="m0 0c2.65-0 5.3-0.01 7.95-0.02 3.6 0 7.19-0.01 10.8-0.01 1.04 0 2.09 0 3.17-0.01 0.96 0 1.91 0.01 2.89 0.01 0.82 0 1.65 0 2.49-0.01 2.2 0.13 4.12 0.52 6.24 1.13v2l2-2c3.03-0.5 5.96-0.47 9 0 2.06 1.87 2.06 1.87 3 4v2h-6v-2c-0.52 0.16-1.04 0.33-1.57 0.5-3.17 0.65-6.21 0.56-9.43 0.5l-1 2v-2c-0.6 0.01-1.19 0.02-1.8 0.04-34 0.71-68 1.05-102 1.02h-2.67c-10.8-0.01-21.7-0.03-32.5-0.06l1-2 41-1c-12.4-0.06-12.4-0.06-24.8-0.1-5.05-0.01-10.1-0.03-15.2-0.05-4.07-0.02-8.14-0.04-12.2-0.04-1.56-0.01-3.11-0.01-4.67-0.02-2.17-0.02-4.35-0.02-6.52-0.02-1.24 0-2.48-0.01-3.76-0.01-3.02-0.07-3.02-0.07-4.89 2.24h-3v-2h-2l-1 2c-0.5-1.49-0.5-1.49-1-3l-3 2v1c-11 0-11 0-14-1l1-2h-2l-1 3c-5.45 0.17-10.9 0.33-16.3 0.48-1.85 0.05-3.7 0.11-5.55 0.17-2.67 0.08-5.33 0.15-8 0.23-0.82 0.02-1.64 0.05-2.49 0.08-4.35 0.11-8.34-0.07-12.6-0.96v-4c7.91-1.19 7.91-1.19 12 0 2.33 0.04 4.66 0.04 7 0v-1c19.8-0.13 39.6-0.27 59.4-0.39 9.2-0.06 18.4-0.12 27.6-0.18 70.5-0.48 70.5-0.48 104-0.52z" fill="#F86728"/>
<path transform="translate(143,196)" d="m0 0c4.29-0.06 8.58-0.09 12.9-0.12 1.22-0.02 2.44-0.04 3.7-0.06 1.17 0 2.34-0.01 3.54-0.02 1.08-0.01 2.15-0.02 3.27-0.03 2.61 0.23 2.61 0.23 4.61 2.23 0.23 2.61 0.23 2.61 0.2 5.88-0.01 1.17-0.02 2.34-0.02 3.54-0.02 1.22-0.04 2.44-0.06 3.7 0 1.24-0.01 2.47-0.02 3.74-0.03 3.04-0.06 6.09-0.1 9.14-3.32 1.99-5.8 2.24-9.64 2.2-1.07-0.01-2.14-0.02-3.24-0.02-1.11-0.02-2.23-0.04-3.37-0.06-1.13 0-2.25-0.01-3.41-0.02-2.78-0.03-5.56-0.06-8.34-0.1-1.83-3.14-2.26-5.44-2.27-9.06v-2.92c0-0.99 0.01-1.99 0.02-3.02-0.01-1-0.02-2-0.02-3.02v-2.92c0.01-0.87 0.01-1.75 0.01-2.65 0.28-2.56 0.97-4.2 2.26-6.41z" fill="#FDFDFD"/>
<path transform="translate(157 156)" d="m0 0c1.11-0.01 2.22-0.02 3.36-0.04h3.21c1.45-0.01 1.45-0.01 2.94-0.02 2.37 0.25 2.37 0.25 4.37 2.25 0.22 2.7 0.22 2.7 0.19 6.1-0.01 1.21-0.01 2.42-0.02 3.67-0.02 1.27-0.03 2.54-0.05 3.85-0.01 1.28-0.02 2.56-0.03 3.88-0.02 3.16-0.05 6.33-0.09 9.5-9.8 0.84-19.2 1.31-29 0-1-1-1-1-1.12-3.59 0.01-1.13 0.01-2.26 0.02-3.42 0-1.21 0-2.43 0.01-3.68 0.01-1.28 0.01-2.56 0.02-3.88 0.01-1.28 0.01-2.56 0.02-3.88 0.01-3.19 0.02-6.37 0.05-9.55 5.26-1.56 10.7-1.19 16.1-1.19z" fill="#FDFDFD"/>
<path transform="translate(193 156)" d="m0 0h2.96c1.01-0 2.02 0 3.06 0.01 1.02-0.01 2.05-0.01 3.1-0.01h2.94 2.7c2.07 0.13 2.07 0.13 3.07 1.13 0.1 2.06 0.13 4.13 0.13 6.19 0.01 1.88 0.01 1.88 0.01 3.8 0 0.99 0 0.99-0.01 2 0 2 0 4.01 0.01 6.02 0 1.26 0 2.51-0.01 3.81v3.51c-0.13 2.67-0.13 2.67-1.13 3.67-3.55 0.26-7.12 0.19-10.7 0.19-1.49 0.02-1.49 0.02-3.01 0.04-5.16 0.01-9.47-0.15-14.3-2.23-0.06-4.12-0.09-8.25-0.12-12.4-0.02-1.18-0.04-2.35-0.05-3.56-0.01-1.13-0.02-2.25-0.02-3.4-0.01-1.04-0.02-2.08-0.04-3.15 0.23-2.52 0.23-2.52 2.23-4.52 3.07-1.05 5.95-1.13 9.17-1.13z" fill="#FDFDFD"/>
<path transform="translate(193 196)" d="m0 0c1.21 0 2.43 0.01 3.68 0.01 1.82-0.02 1.82-0.02 3.68-0.05h3.51c1.6-0.01 1.6-0.01 3.23-0.01 0.85 0.12 1.7 0.25 2.58 0.37 2.33 3.5 2.24 4.86 2.2 8.98-0.01 1.17-0.02 2.33-0.02 3.53-0.02 1.21-0.04 2.43-0.06 3.68 0 1.23-0.01 2.45-0.02 3.72-0.03 3.03-0.06 6.06-0.1 9.09-4.44 0.23-8.87 0.43-13.3 0.63-1.27 0.06-2.53 0.13-3.83 0.19-1.21 0.05-2.42 0.11-3.66 0.16-1.12 0.05-2.23 0.1-3.38 0.16-2.82-0.14-2.82-0.14-5.82-2.14-0.37-2.58-0.37-2.58-0.36-5.81v-3.51c0.01-1.21 0.03-2.43 0.05-3.68-0.01-1.21-0.01-2.43-0.01-3.68 0.06-10.5 1.17-11.6 11.6-11.6z" fill="#FDFDFD"/>
<path transform="translate(178,121)" d="m0 0c4.91 1.26 8.47 3.53 12.6 6.36 5.55 3.77 11.4 7.1 17.3 10.3 6.35 3.43 12.5 7.17 18.7 10.9 3.75 2.27 7.5 4.53 11.3 6.66 1.07 0.6 2.13 1.2 3.23 1.81 0.92 0.5 1.83 0.99 2.76 1.5 2.31 1.64 3.12 2.88 4.12 5.5h-4v-3h-10v-4c-0.79-0.17-1.57-0.34-2.38-0.52-9.64-2.22-9.64-2.22-13.7-4.73-0.95-0.58-1.9-1.16-2.88-1.75-0.99 0.5-0.99 0.5-2 1v3c-8.79 4.09-19.9 3.99-29 1l-1-2 2-2-2-3-2 2 1-5c2.97-0.66 5.94-1.32 9-2l2 3h4l1-2c0.99-0.33 1.98-0.66 3-1-0.64-0.3-1.28-0.61-1.93-0.92-0.83-0.42-1.66-0.84-2.51-1.27-0.82-0.4-1.64-0.81-2.49-1.23-2.07-1.58-2.07-1.58-2.86-4.26-0.07-0.76-0.14-1.53-0.21-2.32-2.31-0.33-4.62-0.66-7-1v-3h-5l1-6h-2v-2z" fill="#F86628"/>
<path transform="translate(89.7 46.5)" d="m0 0c3.94 0.58 7.78 0.58 11.8 0.52 1.66-0.01 3.31-0.03 4.97-0.04 0.85-0.01 1.71-0.02 2.59-0.03 24.2-0.21 24.2-0.21 35.8 1.33 8.87 1.1 17.8 0.81 26.7 0.64 1.8-0.03 1.8-0.03 3.63-0.05 1.08-0.02 2.16-0.05 3.27-0.07 2.57 0.19 2.57 0.19 4.57 2.19l-2 3c-2.32 0.33-2.32 0.33-5.13 0.25-0.98-0.02-1.95-0.05-2.96-0.07-3.68-0.22-7.27-0.63-10.9-1.18v-2h-10v6h-2v-2c-0.56 0.02-1.12 0.03-1.69 0.04-0.76 0.01-1.53 0.02-2.31 0.03-0.74 0.01-1.49 0.02-2.25 0.03-2.75-0.1-2.75-0.1-5.97-0.58-6.66-0.85-13.4-0.75-20.1-0.83-1.49-0.02-2.97-0.04-4.45-0.07-3.89-0.05-7.77-0.1-11.6-0.15-3.96-0.05-7.92-0.1-11.9-0.16-15.1-1.18-15.1-1.18-29.7 0.69-2.48-0.34-2.48-0.34-5.19-0.93-0.9-0.2-1.8-0.39-2.73-0.59-1.03-0.24-1.03-0.24-2.08-0.48v-2c5.62-1.12 5.62-1.12 9 0v-2h10v-1c6.6-1.46 14-1.76 20.7-0.49z" fill="#F3672B"/>
<path transform="translate(1420,97)" d="m0 0h24v23h-25c-1.23-3.68-1.18-7.1-1.19-10.9-0.02-1.07-0.02-1.07-0.03-2.17-0.02-4.11 0.33-6.11 2.22-9.89z" fill="#625853"/>
<path transform="translate(239,241)" d="m0 0c3.21 0.23 6.42 0.39 9.64 0.52 5.15 0.27 5.15 0.27 7.36 2.48-7.59 3.79-18.8 2.14-27 2.11h-4.46c-4.02 0-8.03 0-12-0.01-4.2 0-8.41-0.01-12.6-0.01-7.95 0-15.9-0.01-23.8-0.02-9.06-0.01-18.1-0.01-27.2-0.02-18.6-0.01-37.2-0.03-55.9-0.05l1-5c0.99 0.33 1.98 0.66 3 1l2-1c3.03-0.1 6.04-0.14 9.07-0.13 0.9 0 1.81 0 2.75-0.01 1.93 0 3.85 0.01 5.78 0.01 2.93 0 5.85 0 8.78-0.01 1.87 0 3.75 0.01 5.62 0.01 0.87 0 1.74-0.01 2.63-0.01 5.53 0.02 10.9 0.44 16.4 1.14v1h8v-2c4.29-0.06 8.58-0.09 12.9-0.12 1.22-0.02 2.44-0.04 3.7-0.06 1.17 0 2.34-0.01 3.54-0.02 1.08-0.01 2.15-0.02 3.27-0.03 2.61 0.23 2.61 0.23 4.61 2.23 2.61 0.23 5.08 0.33 7.69 0.31h2.31c4.98-0.08 9.56-0.7 14.4-1.81 8.67-1.97 20-3.37 28.6-0.5z" fill="#F5622A"/>
<path transform="translate(163,128)" d="m0 0c0.99 0.33 1.98 0.66 3 1v2h3c-0.75 1.94-0.75 1.94-2 4-2.12 0.75-2.12 0.75-4 1l1-3h-4v2l2 2c-0.99 0.33-1.98 0.66-3 1l-1 3c-0.62-0.21-1.24-0.41-1.88-0.62-0.7-0.13-1.4-0.25-2.12-0.38l-2 2c-0.99-0.33-1.98-0.66-3-1l1 3c-1.94 2.69-1.94 2.69-4 5l4-1-1-2c3.4-2.09 6.05-2.18 10-2v2l2 1-2 4c0.99 0.33 1.98 0.66 3 1-0.99 0.33-1.98 0.66-3 1l10 1c-2.79 2.79-4.57 2.27-8.47 2.31-1.29 0.02-2.58 0.05-3.92 0.07-2.06 0.03-4.12 0.06-6.18 0.08-1.99 0.02-3.97 0.06-5.96 0.1-1.19 0.01-2.38 0.03-3.61 0.04-1.42 0.2-1.42 0.2-2.86 0.4l-2 3-1-3c-0.99 1.32-1.98 2.64-3 4-0.99-0.33-1.98-0.66-3-1 0.99-1.32 1.98-2.64 3-4l-2-1c-0.33-1.67-0.67-3.33-1-5l-2-1c1.05-0.5 2.1-0.99 3.19-1.5 5.04-2.52 9.77-5.5 14.6-8.47 4.39-2.73 8.82-5.38 13.3-8.03 0.86-0.57 1.71-1.14 2.59-1.73 0.8-0.42 1.59-0.84 2.41-1.27z" fill="#F6622A"/>
<path transform="translate(231,208)" d="m0 0c0.56 0.59 0.56 0.59 1.12 1.19 2.51 2.42 5.19 4.59 7.88 6.81-0.99 1.49-0.99 1.49-2 3l2 1v2h2l1-2 4 7h2v6c-0.99 0.33-1.98 0.66-3 1v-2c-1.26 0.02-1.26 0.02-2.55 0.04-1.1 0-2.2 0.01-3.33 0.02-1.63 0.02-1.63 0.02-3.3 0.04-2.82-0.1-2.82-0.1-4.82-1.1v3h-2l-1 2h-6v-4h-5v-3c-0.78-0.27-1.57-0.54-2.38-0.81-2.62-1.19-2.62-1.19-4.62-4.19 0.02-3.14 0.02-3.14 0.38-6.69 0.11-1.18 0.22-2.36 0.33-3.57 0.1-0.91 0.19-1.81 0.29-2.74h1l1 12c3.86 1.35 3.86 1.35 7 0v-2c0.8 0.02 1.61 0.04 2.44 0.06 2.49 0.24 2.49 0.24 3.56-1.06l-2-1v-4h2v-3c2-2.19 2-2.19 4-4z" fill="#F3672B"/>
<path transform="translate(819,99)" d="m0 0c2.01 0.29 4.01 0.62 6 1-0.11 0.87-0.11 0.87-0.22 1.76-0.77 6.84-0.87 13.6-0.78 20.4 0.03 2.07 0.05 4.15 0.06 6.23 0.01 0.9 0.03 1.81 0.04 2.74-0.1 2.84-0.1 2.84-0.59 5.97-0.68 5.14-0.68 10.2-0.72 15.4l-0.09 6.72c-0.04 3.52-0.08 7.04-0.1 10.6-0.03 3.4-0.07 6.81-0.12 10.2-0.01 1.05-0.01 2.11-0.01 3.2-0.02 0.97-0.04 1.95-0.05 2.96-0.01 0.86-0.02 1.72-0.03 2.61-0.47 2.65-1.33 3.54-3.39 5.21-1-4.97-1.14-9.7-1.13-14.7v-2.6c-0.01-2.82-0.01-5.64 0-8.46 0-1.96 0-3.92-0.01-5.89 0-4.1 0-8.2 0.01-12.3 0.01-5.27 0-10.5 0-15.8-0.01-4.04-0.01-8.09 0-12.1 0-1.94 0-3.89-0.01-5.83 0-2.71 0.01-5.42 0.01-8.12 0-0.81 0-1.62-0.01-2.46 0.03-5.53 0.03-5.53 1.14-6.64z" fill="#706660"/>
<path transform="translate(27,148)" d="m0 0h1l1 8 2-6 2 1v5l2 1-2 4c0.99 0.33 1.98 0.66 3 1h-3l1 4 2-1v3c0.99-0.33 1.98-0.66 3-1l-1 7-4-2c-1.29 8.5-2.44 16.4-1.09 25 0.03 0.67 0.06 1.35 0.09 2.04l-2 2-1-5c-0.65 1.64-0.65 1.64-1.31 3.31-1.14 2.88-2.47 4.55-4.69 6.69-0.02-4.97-0.04-9.93-0.05-14.9l-0.03-5.07c-0.01-2.43-0.01-4.85-0.02-7.28 0-0.76-0.01-1.52-0.01-2.3 0-1.82 0.05-3.63 0.11-5.45l1-1c-0.16-1.28-0.33-2.56-0.5-3.88-0.67-5.4-0.55-10.8 0.5-16.1l2-2z" fill="#F6622A"/>
<path transform="translate(61.2 37.4)" d="m0 0c4.58 0.63 9.04 0.79 13.7 0.81 0.83 0.01 1.66 0.01 2.52 0.02 1.79 0.01 3.59 0.03 5.38 0.04 2.84 0.01 5.67 0.04 8.51 0.06 8.06 0.07 16.1 0.13 24.2 0.18 4.95 0.03 9.89 0.08 14.8 0.12 1.88 0.02 3.76 0.03 5.64 0.04 2.62 0.01 5.24 0.04 7.87 0.06h2.35c3.76 0.06 6.66 0.2 9.85 2.31v1c-30.6 1.07-61.1 1.11-91.6 1h-6.35l-2-1-1 2c-2.47-0.99-2.47-0.99-5-2l1-2 2 1v-2c3.02-1.78 4.76-2.2 8.2-1.64z" fill="#F3672B"/>
<path transform="translate(704,217)" d="m0 0c1.08 0.96 1.08 0.96 2.19 1.94 4.04 2.96 7.74 3.18 12.7 3.21 0.93 0 1.87 0.01 2.83 0.01 1 0.01 2 0.01 3.03 0.01 1.56 0 1.56 0 3.15 0.01 2.19 0 4.39 0.01 6.59 0.01 3.34 0 6.68 0.02 10 0.03 2.14 0.01 4.28 0.01 6.41 0.01 1.49 0.01 1.49 0.01 3.01 0.02 5.69-0.02 10.7-0.37 16.1-2.25l1-3c1.12 3.75 1.12 3.75 0 6h-2l-1 3c-8.47 2.34-16.8 2.27-25.5 2.21-2.4-0.02-4.8-0.02-7.19-0.02-24.6-0.06-24.6-0.06-29.3-4.19-1.88-2.56-1.88-2.56-3-5l1-2z"/>
<path transform="translate(1079,217)" d="m0 0c1.08 0.96 1.08 0.96 2.19 1.94 4.05 2.97 7.76 3.18 12.7 3.21 0.94 0 1.88 0.01 2.85 0.01 1.01 0.01 2.01 0.01 3.05 0.01 1.56 0 1.56 0 3.16 0.01 2.21 0 4.41 0.01 6.62 0.01 3.36 0 6.73 0.02 10.1 0.03 2.15 0.01 4.29 0.01 6.44 0.01 1 0.01 2.01 0.01 3.04 0.02 6.5-0.02 11.3-0.56 16.9-4.25-0.28 3.36-0.78 4.76-3.12 7.25-5.39 3.28-11.6 2.9-17.8 2.88-1.11 0-1.11 0-2.24 0.01-1.55 0-3.11-0.01-4.66-0.01-2.34 0-4.68 0-7.03 0.01-25.6 0.01-25.6 0.01-32-4.45-1.12-1.69-1.12-1.69-0.81-4.38 0.23-0.76 0.46-1.52 0.69-2.31z"/>
<path transform="translate(503,165)" d="m0 0c0.5 0.99 0.5 0.99 1 2-0.93 1.34-1.87 2.67-2.81 4-0.52 0.74-1.05 1.49-1.58 2.25-0.53 0.58-1.06 1.16-1.61 1.75h-3v2c-8.94 3.44-18.3 3.14-27.7 3.1-1.19 0-2.37-0.01-3.59-0.01-3.76 0-7.52-0.01-11.3-0.03-2.56 0-5.12-0.01-7.68-0.01-6.26-0.01-12.5-0.03-18.8-0.05v-4c0.73-0.01 1.46-0.01 2.22-0.02 6.93-0.06 13.8-0.13 20.8-0.22 3.56-0.04 7.12-0.08 10.7-0.11 4.1-0.03 8.2-0.08 12.3-0.14 1.26 0 2.53-0.01 3.83-0.02 9.67-0.16 17.4-1.42 25.2-7.49l2-3z"/>
<path transform="translate(721 177)" d="m0 0c1.14 0 2.28 0.01 3.46 0.01 3.62 0.01 7.23 0.03 10.8 0.06 2.46 0.01 4.93 0.02 7.39 0.03 6.02 0.02 12 0.05 18 0.1v4c-1.04 0.01-1.04 0.01-2.09 0.02-7.17 0.09-14.3 0.19-21.5 0.29-2.68 0.04-5.35 0.08-8.03 0.11-3.84 0.04-7.69 0.1-11.5 0.16-1.19 0.01-2.39 0.02-3.62 0.04-1.12 0.02-2.24 0.04-3.39 0.06-0.98 0.01-1.97 0.02-2.98 0.04-3.17 0.31-5.83 1.25-8.84 2.28h-4c-0.25 0.63-0.5 1.27-0.75 1.93-1.25 2.07-1.25 2.07-3.38 2.82-0.93 0.12-0.93 0.12-1.87 0.25-0.11 0.59-0.21 1.19-0.32 1.81-0.79 2.51-1.73 3.47-3.68 5.19l-2 2c0.86-6.93 5.75-11.4 11-15.6 8.34-5.64 17.5-5.66 27.3-5.57z"/>
<path transform="translate(1096 177)" d="m0 0c1.14 0 2.28 0.01 3.46 0.01 3.62 0.01 7.23 0.03 10.8 0.06 2.46 0.01 4.93 0.02 7.39 0.03 6.02 0.02 12 0.05 18 0.1v4c-1.05 0-1.05 0-2.11 0.01-6.57 0.03-13.2 0.09-19.7 0.17-3.38 0.04-6.76 0.07-10.1 0.09-3.9 0.02-7.79 0.06-11.7 0.12h-3.63c-9.81 0.17-16.9 2.64-24.7 8.61-1.84 2.1-1.84 2.1-3 4l-2-1c10.6-13.4 20.6-16.4 37.2-16.2z"/>
<path transform="translate(217 248)" d="m0 0c2.37 0.01 4.74-0 7.1-0.01 8.85 0 17.6 0.24 26.4 0.88 3.93 0.38 3.93 0.38 7.62-0.74v3h-2c0.03 1.64 0.03 1.64 0.06 3.31-0.06 3.69-0.06 3.69-1.06 6.69h2l-1 3-5-1v-6l4-1v-4c-1.81 0.02-1.81 0.02-3.65 0.04-1.57 0-3.15 0.01-4.73 0.02-1.19 0.02-1.19 0.02-2.4 0.03-5.99 0.02-5.99 0.02-8.22-1.09l-1 2v-2c-1.3 0.03-2.59 0.06-3.93 0.09-35.4 0.82-70.7 1.23-106-0.09v-1c0.94-0.02 0.94-0.02 1.91-0.03 6.67-0.11 13.3-0.23 20-0.34 2.47-0.04 4.95-0.09 7.42-0.13 11.9-0.19 23.8-0.4 35.7-1.03 8.92-0.47 17.8-0.62 26.8-0.6z" fill="#FDFFFF"/>
<path transform="translate(594 142)" d="m0 0c1.3-0 2.59-0.01 3.93-0.01 2.73-0.01 5.47-0.01 8.2 0 3.48 0 6.96-0.02 10.4-0.04 3.35-0.02 6.7-0.01 10-0.01 1.24-0.01 2.48-0.02 3.75-0.03 9.73 0.05 18 1.24 26 7.27 0.88 0.65 1.77 1.31 2.68 1.99 2.5 2.18 4.46 4.48 6.45 7.13l-1 2c-7.42-5.35-7.42-5.35-10.4-8.69-7.34-6.62-17.3-5.75-26.6-5.71-1.46 0-2.91 0-4.36-0.01-3.02 0-6.04 0.01-9.07 0.02-3.86 0.02-7.72 0.01-11.6-0.01-2.99-0.01-5.98-0.01-8.97 0-1.42 0-2.84 0-4.27-0.01-7.35-0.03-13.1 0.04-19.7 3.41-0.99-0.33-1.98-0.66-3-1 8.55-6.41 17.2-6.31 27.6-6.3z"/>
<path transform="translate(576,216)" d="m0 0c1.43 1.27 2.86 2.54 4.3 3.81 3.21 2.24 6.64 2.32 10.5 2.4 0.94 0.02 1.88 0.04 2.85 0.06 1.01 0.01 2.01 0.03 3.05 0.05 1.56 0.03 1.56 0.03 3.15 0.06 3.31 0.06 6.62 0.12 9.93 0.18 2.25 0.05 4.49 0.09 6.74 0.13 5.5 0.11 11 0.21 16.5 0.31v5c-4.89 0.03-9.78 0.04-14.7 0.05-1.65 0.01-3.31 0.02-4.97 0.03-29.8 0.15-29.8 0.15-36.4-5.08-1.5-2.62-1.5-2.62-2-5l1-2z"/>
<path transform="translate(235 270)" d="m0 0c3.27-0.04 6.53-0.08 9.8-0.1 0.93-0.02 1.87-0.03 2.83-0.05 1.26 0 1.26 0 2.54-0.01 0.72-0.01 1.43-0.01 2.17-0.02 1.87 0.23 1.87 0.23 4.87 2.23 2.12 0.64 2.12 0.64 4 1v2c-4.39 0.71-8.55 1-13 1l-2 1c-1.78 0.1-3.57 0.13-5.35 0.14h-3.31c-1.16 0-2.33-0.01-3.52-0.01-1.18 0-2.35-0.01-3.56-0.01-8.46-0.04-16.8-0.34-25.3-1.12v-1h31c-4.25-2.12-6.29-2.27-11-2.32-1.04-0.01-1.04-0.01-2.1-0.03-2.28-0.03-4.57-0.04-6.85-0.06-1.59-0.02-3.17-0.04-4.76-0.06-4.17-0.05-8.34-0.09-12.5-0.13-4.26-0.04-8.52-0.09-12.8-0.14-8.35-0.1-16.7-0.18-25-0.26v-1c8.73-0.13 17.5-0.26 26.2-0.39 4.06-0.06 8.11-0.12 12.2-0.18 9.87-0.15 19.8-0.28 29.6-0.4 1.94-0.03 3.87-0.05 5.81-0.08z" fill="#F5622A"/>
<path transform="translate(1546,194)" d="m0 0c3.74 1.56 6.11 3.87 8.96 6.73l1.41 1.41c0.98 0.99 1.97 1.98 2.95 2.97 1.47 1.49 2.96 2.98 4.44 4.46 4.69 4.71 9.26 9.49 13.6 14.5 3.65 4.18 7.55 8.15 11.4 12.2 3.22 3.4 6.07 6.55 8.25 10.7-4.96-1.06-8.08-2.74-11.4-6.62-0.6-0.72-1.21-1.43-1.83-2.17-1.66-2.04-3.2-4.13-4.73-6.27-2.56-3.48-5.4-6.06-8.7-8.81-4.2-3.8-7.92-8.05-11.7-12.2-1.46-1.59-2.93-3.17-4.5-4.66-1.14-1.23-1.14-1.23-1.14-3.23-0.99-0.33-1.98-0.66-3-1-4-4.34-4-4.34-4-8z" fill="#020202"/>
<path transform="translate(1419,145)" d="m0 0 5 1-2 12h-2c0.14 0.52 0.28 1.04 0.43 1.57 1.87 7.84 1.84 15.6 1.78 23.6-0.02 2.35-0.02 4.7-0.02 7.06-0.01 1.49-0.02 2.99-0.02 4.49 0 0.7 0 1.4-0.01 2.13-0.04 4.92-0.04 4.92-1.16 7.15-0.15 1.45-0.25 2.9-0.32 4.35-0.04 0.85-0.08 1.7-0.12 2.58-0.04 0.89-0.08 1.78-0.12 2.69-0.05 0.9-0.09 1.8-0.13 2.72-0.11 2.22-0.21 4.44-0.31 6.66h-1c-0.87-15.6-1.16-31-1.13-46.6 0.01-3.7 0-7.39-0.01-11.1 0-2.36 0.01-4.71 0.01-7.07 0-1.1-0.01-2.2-0.01-3.33 0-1.01 0.01-2.02 0.01-3.07v-2.69c0.13-2.14 0.13-2.14 1.13-4.14z" fill="#706660"/>
<path transform="translate(215 73.6)" d="m0 0c1.03-0.01 2.07-0.02 3.13-0.02 2.75 0.4 2.75 0.4 5.75 3.4-2.32 1.65-4.63 3.29-7 5 0.63 2.47 0.63 2.47 2 5 2.52 1.36 2.52 1.36 5 2 0.32-0.66 0.65-1.32 1-2 2.56-0.63 2.56-0.63 5-1 1.07 2.8 0.95 4.19 0.31 7.18-1.31 2.82-1.31 2.82-3.25 3.56-1.02 0.13-1.02 0.13-2.06 0.26-1 0.65-1.98 1.31-3 2-3.32-2.15-4.07-3.28-5-7-1.98-1.76-1.98-1.76-4-3h2c0.35-3.77 0.35-3.77-1.07-5.69-2.82-1.92-5.59-2-8.93-2.31-0.34-1.32-0.66-2.65-1-4 3.83-2.68 6.46-3.42 11.1-3.38z" fill="#F3672B"/>
<path transform="translate(485,205)" d="m0 0c4.45 0.52 6.74 2.06 10.1 4.94 1.45 1.22 1.45 1.22 2.92 2.46 3.79 3.32 7.5 6.72 11.2 10.1 3.57 3.21 7.3 6.21 11 9.23 3.64 3.01 7.13 6.19 10.6 9.39 2.15 1.99 2.15 1.99 5.09 3.85v2h-4v-2l-5-1-1-3c-1.32-0.68-2.66-1.35-4-2l-4-4c-0.74-0.43-1.49-0.87-2.25-1.31-5.15-3.17-9.49-7.43-13.8-11.7-4.88-4.46-9.95-8.55-15.3-12.4-0.56-0.52-1.12-1.04-1.69-1.58v-3z" fill="#010101"/>
<path transform="translate(206,235)" d="m0 0v2l12 1v3c-8.14 1.99-15.9 3.31-24.3 3.38-0.74 0.01-1.47 0.02-2.23 0.04-2.07-0.02-2.07-0.02-5.46-0.42l-2-3c0.47-0.78 0.95-1.57 1.44-2.38 0.9-1.51 1.77-3.04 2.56-4.62 2.33-0.45 2.33-0.45 5.25-0.69 1.43-0.13 1.43-0.13 2.89-0.26 3.61-0.06 6.62 0.33 9.86 1.95z" fill="#F86728"/>
<path transform="translate(1343 142)" d="m0 0h3.88c1.4 0.01 2.79 0.01 4.18 0.02h4.29c3.75 0 7.51 0.01 11.3 0.02 3.84 0.02 7.67 0.02 11.5 0.02 7.51 0.02 15 0.03 22.6 0.05v3c-0.84 0.01-1.69 0.01-2.56 0.01-7.99 0.04-16 0.1-24 0.18-4.11 0.04-8.21 0.07-12.3 0.08-3.97 0.02-7.94 0.05-11.9 0.1-1.51 0.02-3.02 0.02-4.53 0.03-7.57 0-14.3 0.03-21.1 3.75-1.6 0.85-1.6 0.85-3.6 0.85l-1 3c-1.96 1.4-3.95 2.74-6 4 2.86-6.37 7.83-9.73 14.2-12.3 5.23-1.95 9.52-2.81 15.1-2.8z"/>
<path transform="translate(1080,142)" d="m0 0c7.91-0.07 15.8-0.12 23.7-0.16 3.68-0.01 7.35-0.03 11-0.07 3.55-0.03 7.1-0.05 10.7-0.05 2-0.01 3.99-0.04 5.99-0.06 9.25 0 17.8 0.82 25.5 6.34 0.71 0.5 1.42 0.99 2.15 1.5 1.8 1.41 3.41 2.77 4.91 4.5v2c-3.08-0.34-4.04-1.04-6.25-3.31-7.75-7.57-16-7.29-26.2-7.3-1.49-0.01-2.98-0.03-4.47-0.05-3.9-0.04-7.8-0.06-11.7-0.08-3.99-0.02-7.98-0.06-12-0.1-7.81-0.07-15.6-0.13-23.4-0.16v-3z"/>
<path transform="translate(401 108)" d="m0 0c0.96-0.01 1.92-0.01 2.91-0.02 1.05 0 2.11-0.01 3.19-0.01 1.11-0.01 2.22-0.01 3.37-0.02 3.68-0.02 7.36-0.03 11-0.04 1.25-0.01 2.51-0.01 3.81-0.01 5.96-0.02 11.9-0.04 17.9-0.05 6.88 0 13.8-0.03 20.6-0.07 5.97-0.04 11.9-0.05 17.9-0.05 2.53-0.01 5.06-0.02 7.6-0.04 3.55-0.02 7.09-0.02 10.6-0.01 1.05-0.02 2.09-0.03 3.17-0.04 6.51 0.04 10.7 1.03 16.3 4.51 0.49 0.99 0.49 0.99 1 2-3.74-0.5-5.81-0.88-9-3-5.71-1.15-11.4-1.15-17.1-1.15-1.49 0-1.49 0-3.01-0.01-3.28-0.01-6.55-0.01-9.82-0.01-2.28 0-4.57-0.01-6.85-0.01-4.78-0.01-9.55-0.01-14.3-0.01-6.12 0-12.2-0.01-18.4-0.03-4.71-0.01-9.42-0.01-14.1-0.01-2.25 0-4.51-0.01-6.76-0.01-3.16-0.01-6.31-0.01-9.46-0.01-0.93 0-1.86-0.01-2.81-0.01-5.91 0.03-11 0.57-16.3 3.26 2.09-4.63 3.58-5.12 8.55-5.15z"/>
<path transform="translate(705,142)" d="m0 0c7.91-0.07 15.8-0.12 23.7-0.16 3.68-0.01 7.35-0.03 11-0.07 3.55-0.03 7.1-0.05 10.7-0.05 2-0.01 3.99-0.04 5.99-0.06 10.8 0 20 1.58 28.6 8.34 2 2.31 2 2.31 3 4-2.19-1.04-4.21-2.14-6.24-3.48-8.05-5.1-15.5-5.39-24.7-5.32-1.51-0.02-3.02-0.03-4.53-0.05-3.93-0.03-7.86-0.03-11.8-0.03-4.03 0.01-8.06-0.03-12.1-0.06-7.87-0.05-15.8-0.07-23.6-0.06v-3z"/>
<path transform="translate(898 142)" d="m0 0c1.09-0.01 2.17-0.02 3.29-0.03 1.75 0.01 1.75 0.01 3.53 0.02 1.81 0 1.81 0 3.66-0.01 2.56 0 5.12 0 7.69 0.02 3.89 0.01 7.78-0 11.7-0.02 2.49 0 4.98 0 7.48 0.01 1.15-0.01 2.3-0.01 3.49-0.02 9.75 0.08 18.8 1.27 26.7 7.42l-1 3c-0.63-0.35-1.26-0.7-1.9-1.06-0.82-0.46-1.64-0.91-2.48-1.38-0.81-0.45-1.62-0.9-2.46-1.37-3.7-2.04-5.83-2.33-10.1-2.35-1.25-0.01-2.49-0.02-3.78-0.03-1.36-0.01-2.73-0.01-4.09-0.01-1.4-0.01-2.8-0.02-4.2-0.02-2.93-0.01-5.86-0.02-8.8-0.02-3.75-0.01-7.5-0.03-11.2-0.06-2.89-0.02-5.78-0.02-8.67-0.03-1.38 0-2.77-0.01-4.15-0.02-1.94-0.02-3.88-0.01-5.81-0.01-1.11 0-2.21-0.01-3.34-0.01-3.35 0.41-5.25 1.45-7.98 3.37 2.2-5.82 6.62-7.38 12.5-7.39z"/>
<path transform="translate(1307,169)" d="m0 0 4 2c0.14 18.7-0.19 37.3-1 56l-1-4h-2c-1.52-3.03-1.14-6.18-1.13-9.51 0-0.76 0-1.51-0.01-2.3 0-1.61 0.01-3.23 0.01-4.84 0-2.42 0-4.83-0.01-7.24 0-10.1 0.38-20.1 1.14-30.1z" fill="#6F655F"/>
<path transform="translate(18,178)" d="m0 0h1c0 0.62 0.01 1.24 0.01 1.88 0.11 15.1 0.22 30.2 0.33 45.3 0.05 7.31 0.11 14.6 0.16 21.9 0.04 6.37 0.09 12.8 0.14 19.1 0.02 3.37 0.05 6.74 0.07 10.1 0.02 3.77 0.05 7.54 0.08 11.3 0.01 1.1 0.02 2.21 0.02 3.34-0.05 9.56-0.05 9.56 1.19 19l2 1-1 7h-1l-1 11h-2c-1.01-3.02-1.12-5.02-1.11-8.18 0.01-1.05 0.01-2.11 0.01-3.2 0.01-1.15 0.02-2.3 0.02-3.49 0.01-1.2 0.01-2.41 0.02-3.65 0.01-3.82 0.03-7.65 0.06-11.5 0.01-1.18 0.01-2.37 0.02-3.59 0.05-8.5 0.12-17 0.2-25.5 0.02-2.67 0.04-5.34 0.07-8.02 0.05-6.23 0.1-12.5 0.16-18.7 0.06-7.12 0.12-14.2 0.18-21.4 0.12-14.6 0.24-29.2 0.37-43.8z" fill="#F5622A"/>
<path transform="translate(68,198)" d="m0 0 4 1c0.96 4.72 1.15 7.69-1 12h-3l-2-6v9h-4l-1 14h-1c-0.06-0.98-0.12-1.95-0.18-2.96-0.09-1.27-0.17-2.54-0.26-3.85-0.08-1.27-0.16-2.53-0.24-3.83-0.19-3.35-0.19-3.35-1.32-6.36h-2l-1 4v-2h-2c-0.79-8.04-0.79-8.04 2.5-12.1 0.83-0.64 1.65-1.28 2.5-1.94v2h4l1 3c0.45-0.66 0.91-1.32 1.38-2 0.53-0.66 1.07-1.32 1.62-2h2v-2z" fill="#F3672B"/>
<path transform="translate(136,189)" d="m0 0 1 3h2l2-3 1 1c1.61-0.09 3.21-0.25 4.81-0.44 17.9-1.75 17.9-1.75 24.2 2.44v3l4 1c-0.99 0.33-1.98 0.66-3 1l-2-1v-2c-0.92 0.33-1.84 0.65-2.79 0.99-5.16 1.48-10.3 1.23-15.6 1.13-1.02 0-2.03-0.01-3.08-0.02-2.49-0.03-4.99-0.06-7.48-0.1l-1 2h-3l-2 3c0-9 0-9 1-12z" fill="#F66229"/>
<path transform="translate(188,188)" d="m0 0h24v1c-0.94 0.18-0.94 0.18-1.9 0.37-0.82 0.16-1.63 0.33-2.48 0.51-0.81 0.16-1.62 0.32-2.46 0.49-2.35 0.5-2.35 0.5-4.16 2.63 0.61 0.05 1.23 0.1 1.86 0.15 1.22 0.11 1.22 0.11 2.45 0.23 1.2 0.1 1.2 0.1 2.43 0.21 2.26 0.41 2.26 0.41 5.26 2.41v2c0.99 0.33 1.98 0.66 3 1l1 6h-2c0.46 0.99 0.46 0.99 0.94 2 1.75 4.95 2.93 9.1 0.68 14-0.53 0.66-1.07 1.32-1.62 2h-1l-1-6-2 1v-20c-4.13-2.06-7.27-2.42-11.8-2.62-0.7-0.04-1.39-0.08-2.11-0.12-1.72-0.1-3.43-0.18-5.14-0.26l4-2-8-4v-1z" fill="#F76628"/>
<path transform="translate(643,182)" d="m0 0c0.5 1.49 0.5 1.49 1 3-1.5 2.64-1.5 2.64-4 5-3.1 0.71-3.1 0.71-7.06 0.81-0.74 0.03-1.48 0.05-2.24 0.08-2.9 0.07-5.8 0.09-8.7 0.11-1.02 0.01-1.02 0.01-2.05 0.01-11 0.07-22 0.05-33-0.01l1-4c0.63 0 1.26-0.01 1.91-0.01 6.55-0.04 13.1-0.11 19.7-0.2 2.45-0.03 4.89-0.05 7.34-0.06 3.51-0.02 7.03-0.07 10.5-0.12h3.32c1.02-0.02 2.04-0.04 3.09-0.06 0.9-0.01 1.8-0.02 2.72-0.03 3.14-0.67 4.37-2.12 6.42-4.52z"/>
<path transform="translate(266 169)" d="m0 0c1.51 0 3.02 0.03 4.52 0.08 1.19 0.01 1.19 0.01 2.41 0.02 2.54 0.03 5.07 0.09 7.61 0.16 1.72 0.02 3.44 0.04 5.16 0.06 4.22 0.06 8.44 0.14 12.6 0.25v3c0.99 0.33 1.98 0.66 3 1-1.72 0.19-3.45 0.38-5.18 0.56-0.97 0.1-1.93 0.21-2.92 0.32-2.9 0.12-2.9 0.12-5.45-0.42-2.84-0.54-4.62-0.05-7.45 0.54-2.78 0.07-5.53 0.09-8.31 0.06-0.74 0-1.48-0.01-2.24-0.01-1.82-0.02-3.63-0.03-5.45-0.05l1 3h-6c0-5.27 1.3-7.74 6.65-8.57z" fill="#F3672B"/>
<path transform="translate(883,165)" d="m0 0c2.74 3.11 3.37 5.02 3.34 9.14v3.09c-0.02 1.09-0.03 2.19-0.05 3.32 0 1.12-0.01 2.25-0.01 3.41-0.02 3.6-0.05 7.19-0.09 10.8-0.02 2.44-0.03 4.88-0.04 7.32-0.04 5.97-0.09 12-0.15 17.9h-1c-0.2-1.95-0.39-3.91-0.59-5.86-0.3-2.17-0.3-2.17-1.42-4.01-1.08-2.32-1.24-3.78-1.23-6.32-0.01-0.81-0.01-1.62-0.01-2.46 0-0.87 0.01-1.74 0.02-2.64v-2.73c0-1.89 0.01-3.79 0.02-5.69 0.02-2.91 0.02-5.82 0.02-8.74 0.01-1.84 0.02-3.68 0.02-5.53 0-0.87 0-1.74 0.01-2.64 0.04-6.15 0.04-6.15 1.16-8.38z" fill="#6F655F"/>
<path transform="translate(1508,194)" d="m0 0c0.49 1.49 0.49 1.49 1 3-0.99 0.33-1.98 0.66-3 1v2h-2c-0.14 0.9-0.14 0.9-0.29 1.81-0.87 2.68-1.94 3.53-4.15 5.25-2.47 1.95-3.76 3.25-5.56 5.94h-2c-0.23 0.72-0.45 1.44-0.69 2.19-1.58 3.4-3.57 5.26-6.31 7.81-0.87 0.91-1.73 1.81-2.62 2.75-2.38 2.25-2.38 2.25-5.38 3.25v3h-2l-1 3c-1.31 1.36-2.65 2.68-4 4-2.36 2.64-4.68 5.32-7 8l-4-1c0.41-0.43 0.81-0.86 1.23-1.31 9.31-9.86 9.31-9.86 18.5-19.9 1.43-1.6 2.87-3.21 4.31-4.81 0.49-0.55 0.98-1.1 1.49-1.66 1.62-1.81 3.25-3.61 4.89-5.4 0.51-0.58 1.02-1.15 1.55-1.74 2.32-2.55 3.74-4.09 7.07-5.2 0.69-1.32 1.35-2.66 2-4 1.33-1.46 2.71-2.88 4.12-4.25 0.73-0.71 1.45-1.41 2.2-2.14 0.55-0.53 1.11-1.06 1.68-1.61z"/>
<path transform="translate(212,98)" d="m0 0 1 2h3c0.84 3.38 1.11 5.67 0 9 1.11-0.12 1.11-0.12 2.25-0.25 3.55 0.32 4.42 1.68 6.75 4.25h2l1 4h-2v-2c-1.18 0.35-2.35 0.7-3.56 1.06-7.7 0.99-14.4-4.96-20.4-9.06 2.82-2.93 5.51-4.92 9-7l1-2z" fill="#F76628"/>
<path transform="translate(1477,233)" d="m0 0c0.93 3.01 1.04 3.87 0 7 1.66 0.68 3.33 1.34 5 2 0.64 0.26 1.28 0.53 1.94 0.8 3.82 1.53 6.87 2.59 11.1 2.2l-1 2h-29l1-5c0.99-0.33 1.98-0.66 3-1 0.43-1.21 0.43-1.21 0.88-2.44 1.12-2.56 1.12-2.56 3.68-3.81 0.81-0.25 1.61-0.5 2.44-0.75l1-1z" fill="#6F655F"/>
<path transform="translate(966,142)" d="m0 0c5.66-0.07 11.3-0.13 17-0.16 1.92-0.02 3.84-0.04 5.76-0.07 2.77-0.03 5.55-0.05 8.32-0.06 0.85-0.02 1.7-0.03 2.57-0.05 7.95 0 15.7 1.64 22.3 6.28 1.06 0.72 1.06 0.72 2.15 1.46 2.01 1.69 3.42 3.44 4.91 5.6-2.44-0.81-2.44-0.81-5-2-0.5-1.49-0.5-1.49-1-3-1.96-0.99-1.96-0.99-4.31-1.62-0.78-0.24-1.56-0.48-2.37-0.73-0.76-0.22-1.53-0.43-2.32-0.65-0.62-0.17-1.23-0.35-1.86-0.53-2.27-0.5-4.32-0.63-6.63-0.68-1.32-0.03-1.32-0.03-2.67-0.06-0.94-0.01-1.89-0.03-2.86-0.05-1.45-0.03-1.45-0.03-2.94-0.06-3.1-0.06-6.19-0.12-9.29-0.18-2.1-0.05-4.2-0.09-6.3-0.13-5.15-0.11-10.3-0.21-15.4-0.31v-3z"/>
<path transform="translate(1579,145)" d="m0 0 8 1c-8.55 11.7-8.55 11.7-12 15h-2c-0.22 0.54-0.45 1.08-0.68 1.64-1.73 3.1-4.04 5.54-6.44 8.11-0.47 0.51-0.94 1.01-1.42 1.54-1.15 1.24-2.31 2.47-3.46 3.71l-2-1c1-2 1-2 2.94-4.38 1.72-2.18 2.94-4.1 4.06-6.62h2l-1-2c-0.99-0.33-1.98-0.66-3-1 0.96-3.56 1.69-4.79 4.81-6.88 3.36-1.18 4.86-1.2 8.19-0.12 1.07-2.3 2.06-4.64 3-7l-1-2z" fill="#6F655F"/>
<path transform="translate(332,265)" d="m0 0h1c0.19 6.08 0.37 12.2 0.54 18.2 0.06 2.07 0.12 4.13 0.18 6.2 0.1 2.98 0.18 5.96 0.26 8.95 0.03 0.91 0.06 1.82 0.09 2.76 0.15 6.19-0.62 11.8-2.07 17.8h-2v-2h-2c0.17-0.94 0.33-1.88 0.5-2.86 0.69-4.81 0.57-9.6 0.5-14.4-0.03-1.79-0.05-3.58-0.06-5.37-0.01-0.78-0.03-1.56-0.04-2.37 0.1-1.95 0.1-1.95 1.1-3.95-0.02-1.24-0.04-2.48-0.06-3.75-0.1-6.5 1.04-12.8 2.06-19.2z" fill="#F6622A"/>
<path transform="translate(836,99)" d="m0 0c2-0.04 4-0.04 6 0 1.64 1.64 1.14 3.49 1.16 5.75 0.01 1.03 0.02 2.06 0.03 3.12 0 1.13 0.01 2.27 0.02 3.44 0.01 1.19 0.02 2.38 0.03 3.61 0.02 3.27 0.04 6.54 0.06 9.82 0.03 3.41 0.05 6.83 0.08 10.2 0.05 6.47 0.09 12.9 0.14 19.4 0.05 7.37 0.1 14.7 0.16 22.1 0.11 15.2 0.22 30.3 0.32 45.5-2.4-2.4-2.28-3-2.41-6.28-0.04-0.93-0.08-1.86-0.12-2.82-0.05-1.58-0.05-1.58-0.09-3.18-0.04-1.13-0.08-2.25-0.12-3.41-0.56-19.3-0.33-38.5-0.26-57.8 0.02-7.04 0.04-14.1 0.06-21.1 0-2.8 0.01-5.6 0.03-8.39 0-1.7 0-3.39 0.01-5.09 0.01-1.16 0.01-1.16 0.01-2.35 0.08-3.9 0.08-3.9-1.11-7.54l-3-2-1-3z" fill="#6F655F"/>
<path transform="translate(71.6 174)" d="m0 0c1.08 0.01 2.16 0.02 3.27 0.03 1.75 0.01 1.75 0.01 3.53 0.02 1.23 0.02 2.45 0.03 3.71 0.05 1.23 0.01 2.46 0.02 3.73 0.03 3.05 0.02 6.1 0.06 9.15 0.1v2h6c-2 3-2 3-4.75 3.62-1.08 0.13-2.15 0.25-3.25 0.38-1.55 0.34-1.55 0.34-3.13 0.68-2.87 0.32-2.87 0.32-4.61-0.63-4.1-1.91-8.68-1.52-13.2-1.71-3.11-0.34-3.11-0.34-5.11-2.34 2-2 2-2 4.61-2.23z" fill="#F6622A"/>
<path transform="translate(953,176)" d="m0 0 2 1v70h-2c-0.96-2.87-1.13-4.66-1.13-7.64 0-0.95-0.01-1.89-0.01-2.86 0-1.02 0.01-2.04 0.01-3.1s0-2.12-0.01-3.22c0-2.26 0.01-4.52 0.01-6.78 0-3.4 0-6.79-0.01-10.2 0-12.4 0.26-24.8 1.14-37.2z" fill="#6E645E"/>
<path transform="translate(66,177)" d="m0 0 11 1c-4 3-4 3-6 4 4.45 0.99 4.45 0.99 9 2l-1 4c-8.22 2.37-8.22 2.37-13 1h-3v-8h3v-4z" fill="#F3672B"/>
<path transform="translate(1245,141)" d="m0 0c15.2 0.33 30.4 0.66 46 1v3h-44l-2-4z"/>
<path transform="translate(595,155)" d="m0 0 2 3h3v3c-2.96 1.69-5.1 2.27-8.5 2.25-0.75 0.01-1.51 0.01-2.28 0.02-2.22-0.27-2.22-0.27-4.31-1.38-0.63-0.29-1.26-0.59-1.91-0.89-2.02 0.95-4.03 1.95-6 3-0.99-0.33-1.98-0.66-3-1 1.06-2.44 1.06-2.44 3-5 3.44-0.69 3.44-0.69 7-1 0.66-0.35 1.32-0.7 2-1.06 3.07-1.44 5.67-1.25 9-0.94z" fill="#6B615C"/>
<path transform="translate(136,106)" d="m0 0c2.47 0.99 2.47 0.99 5 2l1-2c2.97 0.5 2.97 0.5 6 1v3c-2.13 1.46-2.13 1.46-5 3-0.96 0.6-1.92 1.2-2.9 1.82-1 0.62-2.01 1.23-3.04 1.87-1 0.62-2 1.24-3.02 1.88-3.31 1.55-5.44 1.71-9.04 1.43l1-4h7c1.42-3.32 2.39-6.44 3-10z" fill="#F5632A"/>
<path transform="translate(232,231)" d="m0 0c1.96-0.03 3.92-0.05 5.88-0.06 1.09-0.01 2.18-0.03 3.3-0.04 2.82 0.1 2.82 0.1 4.82 1.1v2h3v6c-5.55 0.34-8.97-0.76-14-3-2.79-0.25-2.79-0.25-5 0v-3h2v-3z" fill="#F6622A"/>
<path transform="translate(144,188)" d="m0 0c4.4-0.09 8.79-0.14 13.2-0.19 1.24-0.02 2.49-0.05 3.77-0.07 1.2-0.01 2.41-0.02 3.65-0.03 1.1-0.02 2.21-0.03 3.34-0.05 3.44 0.38 5.3 1.27 8.05 3.34 0.81 2.19 0.81 2.19 1 4h2l-3 9-2-1c-1.26-4.48-1.26-4.48 0-7-0.99-0.33-1.98-0.66-3-1-0.39-0.66-0.78-1.32-1.19-2-2.21-2.45-3.85-2.66-7.07-2.92-6.25-0.19-12.5-0.15-18.7-0.08v-2z" fill="#F7662A"/>
<path transform="translate(844,214)" d="m0 0c0.62 0.8 1.24 1.61 1.88 2.44 1.86 2.6 1.86 2.6 4.12 3.56 2.55 0.23 5.07 0.42 7.62 0.56 0.71 0.05 1.42 0.09 2.15 0.13 1.74 0.11 3.49 0.21 5.23 0.31l1 5c-6.74 0.26-13.6 0.34-20-2-2.19-2.31-2.19-2.31-3-5 0.31-2.81 0.31-2.81 1-5z"/>
<path transform="translate(1556,142)" d="m0 0h35l-2 3c-2.62 0.27-5.01 0.35-7.63 0.29-1.13 0-1.13 0-2.28-0.01-2.41-0.02-4.81-0.05-7.21-0.09-1.63-0.02-3.26-0.03-4.89-0.04-4-0.04-7.99-0.09-12-0.15l1-3z"/>
<path transform="translate(1466,142)" d="m0 0c4.81-0.07 9.61-0.13 14.4-0.16 1.63-0.02 3.27-0.04 4.9-0.07 2.35-0.03 4.7-0.05 7.05-0.06 0.73-0.02 1.46-0.03 2.22-0.05 2.06 0 2.06 0 5.41 0.34l2 3h-35l-1-3z"/>
<path transform="translate(1502,145)" d="m0 0 26 26c0.99-0.33 1.98-0.66 3-1l-1 4c-4.04 0-4.96-1.47-7.88-4.19-0.88-0.82-1.77-1.64-2.68-2.49-4.11-3.91-8.09-7.73-11.4-12.3v-2h-2v-2l-4-1c-0.56-1.94-0.56-1.94-1-4l1-1z" fill="#000001"/>
<path transform="translate(1187,142)" d="m0 0h33l-1 3h-32v-3z"/>
<path transform="translate(1330,179)" d="m0 0 2 1-1 67c-1.95-3.9-2.24-5.1-2.14-9.23 0.04-1.56 0.04-1.56 0.07-3.15 0.03-1.12 0.06-2.23 0.09-3.39 0.03-1.14 0.05-2.29 0.08-3.48 0.08-3.66 0.18-7.33 0.28-11 0.05-2.49 0.11-4.97 0.17-7.46 0.14-6.1 0.29-12.2 0.45-18.3h-2c0.14-1.63 0.29-3.25 0.44-4.88 0.08-0.9 0.16-1.8 0.24-2.74 0.32-2.38 0.32-2.38 1.32-4.38z" fill="#6F655F"/>
<path transform="translate(211,190)" d="m0 0c2.73 0.95 4.94 1.93 7 4 0.89 3.01 1.05 5.87 1 9l-4 1c0.15-1.11 0.15-1.11 0.31-2.25-0.07-2.88-0.07-2.88-2.19-5-4.28-2.4-8.28-2.56-13.1-2.75 5.43-5.61 5.43-5.61 11-4z" fill="#F6622A"/>
<path transform="translate(1165,229)" d="m0 0h2c-2.24 7.05-8.25 10.9-14.5 14.4-3.86 1.8-6.14 2.6-10.5 2.6v-2c1.66-1.01 3.33-2.01 5-3 0.68-0.74 1.36-1.49 2.06-2.25 0.64-0.58 1.28-1.16 1.94-1.75 2.12 0.25 2.12 0.25 4 1h2v-6h2v3c3.52-2.55 3.52-2.55 6-6z" fill="#706660"/>
<path transform="translate(176,159)" d="m0 0c2.51 3.77 2.48 7.62 2 12-0.35 0.66-0.7 1.32-1.06 2-1.56 3.33-0.53 6.43 0.06 10-2-3.75-2-3.75-2-6h-2c-2-2-2-2-2.2-5.26 0.03-1.27 0.05-2.55 0.08-3.86 0.01-1.29 0.03-2.57 0.05-3.89 0.02-0.99 0.05-1.97 0.07-2.99l1 2h3l1-4z" fill="#F5622A"/>
<path transform="translate(721 156)" d="m0 0c13.9 0.27 13.9 0.27 17.1 2.79 0.33 0.48 0.66 0.95 1 1.44-2.27 1.77-4.04 2.99-6.98 3.01-3.41-0.43-6.7-1.15-10-2.01h-3l-2-3c2-2 2-2 3.88-2.23z" fill="#6C615D"/>
<path transform="translate(192,190)" d="m0 0c2.49 0.81 4.65 1.82 7 3v1l8 1v1h-24l-2-4c3.72-2.48 6.69-2.54 11-2z" fill="#F5622A"/>
<path transform="translate(258,241)" d="m0 0h3c3 4.22 3 4.22 3 7h2c0.77 4.71 1.37 9.23 1 14-1.5 1.94-1.5 1.94-3 3-1.48-2.96-1.35-5.84-1.56-9.12-0.09-1.29-0.17-2.57-0.26-3.89-0.06-0.99-0.12-1.97-0.18-2.99h-2v-5h-2v-3z" fill="#F66229"/>
<path transform="translate(1219,177)" d="m0 0 4 1c0.13 8.73-0.2 17.3-1 26h-2c-1.04-3.12-1.11-5.27-1.1-8.54 0.01-1.08 0.01-2.15 0.01-3.25 0.01-1.12 0.02-2.24 0.03-3.4 0-1.13 0.01-2.26 0.01-3.43 0.01-2.79 0.03-5.59 0.05-8.38z" fill="#6F655F"/>
<path transform="translate(1419,142)" d="m0 0h26v3h-26v-3z"/>
<path transform="translate(520,237)" d="m0 0c3.84 2.34 6.21 3.86 8 8l3 2h-15c2-7 2-7 4-10z" fill="#6F655F"/>
<path transform="translate(140,99)" d="m0 0c3.49 1.11 6.77 2.26 10 4v2l4 2c-2.06 1.19-2.06 1.19-5 2-2.55-0.72-4.62-1.79-7-3l-1 3-4-4c0.99-0.33 1.98-0.66 3-1v-4-1z" fill="#F86728"/>
<path transform="translate(1187,145)" d="m0 0 5 1v3h-2l-1 15 2 1-1 2h-3c-1.29-3.87-1.15-7.53-1.12-11.6-0.01-0.78-0.01-1.56-0.02-2.37 0.01-5.82 0.01-5.82 1.14-8.07z" fill="#6F655F"/>
<path transform="translate(286 173)" d="m0 0c2.96 0.2 5.07 0.96 7.75 2.19l1-2v2c0.99 0.33 1.98 0.66 3 1l-4 2v2c-7.26-0.64-12.5-2.64-19-6 1.3 0.02 2.6 0.04 3.94 0.06 1.35 0.02 2.71 0.01 4.06-0.06 1-1 1-1 3.25-1.19z" fill="#F6622A"/>
<path transform="translate(172,81)" d="m0 0v3c-2.56 1.18-5.12 2.34-7.69 3.5-0.72 0.33-1.44 0.67-2.18 1.01-3.84 1.72-6.82 2.97-11.1 2.49 3.02-3.36 5.91-5.12 10-7 1.01-0.56 2.02-1.11 3.06-1.69 2.96-1.32 4.75-1.59 7.94-1.31z" fill="#F5632A"/>
<path transform="translate(1546,194)" d="m0 0c3.99 1.61 6.75 4.39 9.75 7.38 0.51 0.48 1.01 0.96 1.54 1.46 1.44 1.43 1.44 1.43 3.71 4.16v4c-3.36-1.44-5.59-3.25-8-6v-2c-0.99-0.33-1.98-0.66-3-1-4-4.34-4-4.34-4-8z" fill="#020203"/>
<path transform="translate(1437,145)" d="m0 0c2-0.04 4-0.04 6 0 1 1 1 1 1.11 3.96 0 1.29-0.01 2.59-0.01 3.92 0 0.69-0.01 1.37-0.01 2.08 0 2.2-0.01 4.4-0.03 6.6 0 1.49-0.01 2.98-0.01 4.47-0.01 3.66-0.03 7.31-0.05 11h-1v-25h-6l1-4v2h2c-0.99-1.65-1.98-3.3-3-5z" fill="#6F655F"/>
<path transform="translate(1554,145)" d="m0 0 1 4c-0.97 0.62-1.94 1.24-2.94 1.88-3.09 1.78-3.09 1.78-4.06 4.12h-2c-0.27 0.64-0.54 1.28-0.81 1.94-1.19 2.06-1.19 2.06-4.19 3.06l-2 4c-0.99 0.33-1.98 0.66-3 1l-2 4c-0.99 0.33-1.98 0.66-3 1 1.56-3.77 3.91-6.14 6.79-8.98l1.4-1.4c1.48-1.46 2.96-2.92 4.43-4.37 1.01-0.99 2.01-1.99 3.01-2.98 2.45-2.43 4.91-4.85 7.37-7.27z" fill="#000001"/>
<path transform="translate(1419,145)" d="m0 0 5 1-2 12h-3l-1 4c-0.03-2.46-0.05-4.92-0.06-7.38-0.01-0.69-0.02-1.39-0.03-2.11-0.02-5.28-0.02-5.28 1.09-7.51z" fill="#6F655F"/>
<path transform="translate(225,143)" d="m0 0h7v1l8 1v4h3c1.02 0.98 2.02 1.98 3 3 2.1 1.18 2.1 1.18 4 2-2.31 0.62-2.31 0.62-5 1l-3-2v-3h-2l-1 2-2-4c-0.68 0.06-1.36 0.12-2.06 0.19-3.86-0.25-6.45-1.55-9.94-3.19v-2z" fill="#FDFFFF"/>
<path transform="translate(32,300)" d="m0 0h3c1.11 3.33 0.84 5.62 0 9h-2c0.99 1.32 1.98 2.64 3 4h-3c-0.1 0.64-0.21 1.28-0.31 1.94-0.23 0.68-0.46 1.36-0.69 2.06-0.99 0.33-1.98 0.66-3 1l1-8-2-1 1-2h2l1-7z" fill="#F5622A"/>
<path transform="translate(1583,231)" d="m0 0c1.12 1.12 2.24 2.24 3.36 3.37 1.23 1.22 2.47 2.43 3.72 3.64 1.07 1.05 1.07 1.05 2.17 2.11 0.69 0.67 1.37 1.33 2.08 2.01 1.67 1.87 1.67 1.87 2.67 4.87-5.06-1.09-8.09-2.66-11.2-6.88-0.51-0.67-1.02-1.35-1.54-2.05-1.27-2.07-1.92-3.67-2.27-6.07l1-1z"/>
<path transform="translate(1281,145)" d="m0 0c6.75-0.12 6.75-0.12 9 1v9h-3l-1 2c-0.28-0.7-0.55-1.4-0.84-2.12-0.36-0.91-0.72-1.82-1.1-2.76-0.36-0.9-0.72-1.8-1.09-2.74-0.92-2.34-0.92-2.34-1.97-4.38z" fill="#6F655F"/>
<path transform="translate(331,142)" d="m0 0c2 2 2 2 2.23 5.9 0 1.68-0.01 3.36-0.03 5.05-0.01 0.88-0.01 1.77-0.01 2.68-0.01 2.83-0.04 5.66-0.07 8.49-0.01 1.92-0.01 3.84-0.02 5.76-0.02 4.71-0.06 9.41-0.1 14.1-0.99 0.5-0.99 0.5-2 1 0.01-0.92 0.01-1.85 0.02-2.8 0.01-3.43 0.03-6.85 0.03-10.3 0.01-1.48 0.02-2.97 0.03-4.45 0.01-2.13 0.01-4.26 0.02-6.4 0-1.28 0.01-2.56 0.01-3.88 0.04-3.21 0.04-3.21-1.11-6.19 0.12-2.26 0.12-2.26 0.44-4.69 0.1-0.81 0.2-1.61 0.31-2.45 0.08-0.61 0.16-1.23 0.25-1.86z" fill="#F6622A"/>
<path transform="translate(243,169)" d="m0 0 4 1v2c1.14 0.22 1.14 0.22 2.31 0.44 2.69 0.56 2.69 0.56 5.69 1.56v2c0.99 0.33 1.98 0.66 3 1h-3v2l-4 1-1-3h-2v-4l-1 2c-0.99-0.33-1.98-0.66-3-1l-1-5z" fill="#F3672B"/>
<path transform="translate(280,148)" d="m0 0c1.68 0.29 3.34 0.62 5 1v2h2l2 2 2-1 2 5c-2 0.81-2 0.81-5 1-2.96-1.29-5.61-2.83-8-5-0.8-2.11-0.8-2.11-1-4l1-1z" fill="#F76728"/>
<path transform="translate(177,79)" d="m0 0 8 2v2c1.18 0.34 1.18 0.34 2.38 0.69 3.99 1.44 7.61 3.3 11.4 5.29 2.31 1.23 2.31 1.23 5.27 1.02l-1 2c0.97 0.29 1.94 0.58 2.94 0.88 3.06 1.12 3.06 1.12 4.06 3.12-6.68-1.87-12.4-4.7-18.5-8.01-4.75-2.59-9.55-4.89-14.5-6.99v-2z" fill="#F3672A"/>
<path transform="translate(73.6 51.9)" d="m0 0c1.06 0 1.06 0 2.14 0.01 5.46 0.04 10.8 0.39 16.2 1.11-2 2-2 2-4.89 2.23-1.21-0.01-2.41-0.02-3.65-0.03-1.96-0.01-1.96-0.01-3.95-0.02-1.38-0.02-2.76-0.03-4.14-0.05-1.39-0.01-2.78-0.02-4.16-0.03-3.41-0.02-6.81-0.05-10.2-0.1 1-2 1-2 2.58-2.61 3.35-0.53 6.66-0.53 10-0.51z" fill="#F6672C"/>
<path transform="translate(176,169)" d="m0 0 1 2 2 1v14h-2v-2h-3c-0.43-1.11-0.43-1.11-0.88-2.25-0.94-2.32-1.97-4.53-3.12-6.75 0.99-0.33 1.98-0.66 3-1v3h2v-2c0.32-2 0.65-4 1-6z" fill="#F6662B"/>
<path transform="translate(507,142)" d="m0 0c4.36 7.44 1.93 17.1 0 25l-2-1c0.14-3.63 0.29-7.25 0.44-10.9 0.04-1.03 0.08-2.06 0.12-3.12 0.04-0.99 0.08-1.98 0.12-2.99 0.04-0.91 0.08-1.82 0.11-2.76 0.21-2.25 0.21-2.25 1.21-4.25z" fill="#6F655F"/>
<path transform="translate(119,123)" d="m0 0 2 2c-5.39 4.7-11.6 7.85-18 11l-1-3c1.29-0.84 2.58-1.67 3.88-2.5 0.71-0.46 1.43-0.93 2.17-1.41 1.95-1.09 1.95-1.09 3.95-1.09l-1-3c1.7-0.22 1.7-0.22 3.44-0.44 3.37-0.17 3.37-0.17 4.56-1.56z" fill="#F5632A"/>
<path transform="translate(1234,110)" d="m0 0c7.75-0.12 7.75-0.12 10 1v12l-3-6c-2.02-0.65-2.02-0.65-4-1v-2l-2-1 1-2-2-1z" fill="#706660"/>
<path transform="translate(81,121)" d="m0 0h4v9c-3 1-3 1-5.69-0.12-2.31-1.88-2.31-1.88-2.62-4.57 0.1-0.76 0.2-1.52 0.31-2.31h4v-2z" fill="#F3672B"/>
<path transform="translate(214,202)" d="m0 0c0.99 0.33 1.98 0.66 3 1v2h-2c0.31 0.66 0.62 1.32 0.94 2 1.75 4.95 2.93 9.1 0.68 14-0.53 0.66-1.07 1.32-1.62 2h-1c-1.02-6.65-1.37-13.3-1-20l1-1z" fill="#F86628"/>
<path transform="translate(187,225)" d="m0 0c2.44-0.11 4.87-0.19 7.31-0.25 0.69-0.03 1.38-0.07 2.09-0.1 2.03-0.04 2.03-0.04 5.6 0.35 1.98 2.02 1.98 2.02 3 4-0.83-0.01-1.66-0.02-2.52-0.04-1.63-0.01-1.63-0.01-3.29-0.02-1.62-0.02-1.62-0.02-3.27-0.04-2.99-0.04-2.99-0.04-5.92 1.1-2.19-0.94-2.19-0.94-4-2l1-3z" fill="#F86628"/>
<path transform="translate(173,208)" d="m0 0c0.99 0.33 1.98 0.66 3 1v6h2v10c-3-1-3-1-4.18-3.2-0.89-3.02-1.02-5.47-0.94-8.61 0.01-0.98 0.03-1.95 0.05-2.96 0.02-0.74 0.05-1.47 0.07-2.23z" fill="#F6662B"/>
<path transform="translate(658 150)" d="m0 0c2.55 2.37 4.68 4.77 6.75 7.56l-1 2c-7.41-5.35-7.41-5.35-10.4-8.68-3.46-3.13-7.11-4.12-11.6-5.32v-1c6.22-2.33 11.5 1.63 16.2 5.44z" fill="#020303"/>
<path transform="translate(1392,145)" d="m0 0c2.33-0.04 4.67-0.04 7 0 1 1 1 1 1.11 3.04 0 0.88-0.01 1.75-0.01 2.65-0.01 0.95-0.01 1.89-0.01 2.86-0.01 1-0.02 1.99-0.03 3.01 0 1-0.01 2-0.01 3.02-0.01 2.48-0.03 4.95-0.05 7.42h-1c0-0.93-0.01-1.86-0.01-2.82-0.07-8.41-0.07-8.41-4.05-15.5-0.97-0.89-1.94-1.78-2.94-2.69v-1z" fill="#6F655F"/>
<path transform="translate(59,318)" d="m0 0h3l3 2c-1.11 0.31-2.23 0.62-3.38 0.94-3.41 0.88-3.41 0.88-5.62 2.06-2.01-0.28-4.01-0.61-6-1v-4c3.43-0.86 5.63-1.01 9 0z" fill="#F7672A"/>
<path transform="translate(1585,239)" d="m0 0 8 8h-10l-1-4c0.99-0.33 1.98-0.66 3-1v-3z" fill="#6F655F"/>
<path transform="translate(754,180)" d="m0 0c4.88 0.88 4.88 0.88 6 2 0.09 1.42 0.11 2.84 0.1 4.25-0.01 0.86-0.01 1.71-0.01 2.59-0.01 0.9-0.02 1.8-0.03 2.72 0 0.9-0.01 1.81-0.01 2.73-0.01 2.24-0.03 4.47-0.05 6.71h-3c0.25-1.49 0.25-1.49 0.5-3 0.72-5.07 1.14-10.1-0.5-15h-3v-3z" fill="#6F655F"/>
<path transform="translate(1392,158)" d="m0 0c-1 2-1 2-3.75 3.12-2.95 0.8-5.22 1.06-8.25 0.88 0.12-1.88 0.12-1.88 1-4 4.34-2.17 6.73-2.26 11 0z" fill="#6C615D"/>
<path transform="translate(158,140)" d="m0 0c2.97 0.33 5.94 0.66 9 1l-1 4c-2.56 1.25-2.56 1.25-5 2l-4-4 1-3z" fill="#F3672B"/>
<path transform="translate(182,40)" d="m0 0v2h-21v-2c14.8-1.33 14.8-1.33 21 0z" fill="#F3672B"/>
<path transform="translate(1055,203)" d="m0 0 1 3-1 2h2c-0.11 2.48-0.24 4.96-0.38 7.44-0.03 0.7-0.06 1.41-0.09 2.14-0.1 1.81-0.31 3.62-0.53 5.42l-2 1c-0.03-3.12-0.05-6.25-0.06-9.38-0.01-0.88-0.02-1.77-0.03-2.69 0-0.85 0-1.7-0.01-2.58 0-0.78-0.01-1.57-0.01-2.38 0.11-1.97 0.11-1.97 1.11-3.97z" fill="#6E645E"/>
<path transform="translate(1009,173)" d="m0 0c0.99 0.33 1.98 0.66 3 1v16l2 1h-2l-1 4c-0.91-2.73-1.18-4.62-1.32-7.45-0.04-0.85-0.08-1.69-0.12-2.57s-0.08-1.76-0.12-2.67c-0.05-0.89-0.09-1.78-0.13-2.7-0.11-2.2-0.21-4.41-0.31-6.61z" fill="#6D635D"/>
<path transform="translate(212,152)" d="m0 0c5.54 0.62 5.54 0.62 7.88 2.56 0.55 0.71 0.55 0.71 1.12 1.44l-4 4-3-2 1-1-4-1 1-4z" fill="#F6622A"/>
<path transform="translate(1418,101)" d="m0 0c0.99 0.33 1.98 0.66 3 1v18h-2c-1.25-3.76-1.11-7.27-1.06-11.2 0-0.75 0.01-1.5 0.01-2.27 0.01-1.85 0.03-3.69 0.05-5.54z" fill="#6E645E"/>
<path transform="translate(261,248)" d="m0 0 2 1v13c-2-1-2-1-4-4-0.2-2.26-0.2-2.26-0.12-4.69 0.01-0.81 0.03-1.61 0.05-2.45 0.02-0.61 0.05-1.23 0.07-1.86l2-1z" fill="#F6672A"/>
<path transform="translate(259,139)" d="m0 0 4 1v2c4.65 1.37 4.65 1.37 9.38 2.44 0.53 0.18 1.07 0.37 1.62 0.56l1 3c0.99 0.33 1.98 0.66 3 1l-1 2c-2.31-0.99-4.62-1.98-7-3v-2c-0.89-0.27-1.77-0.54-2.69-0.81-3.1-1.12-5.62-2.29-8.31-4.19v-2z" fill="#F3672B"/>
<path transform="translate(97,269)" d="m0 0c1.44 0.11 2.88 0.24 4.31 0.38 1.2 0.1 1.2 0.1 2.43 0.21 2.26 0.41 2.26 0.41 5.26 2.41-2.19 1.62-2.19 1.62-5 3-2.81-0.81-2.81-0.81-5-2v-2h-2v-2z" fill="#F4672A"/>
<path transform="translate(1080,145)" d="m0 0c2.01 0.29 4.01 0.62 6 1v3c-0.99 0.5-0.99 0.5-2 1-0.66 2.53-0.66 2.53-1 5-0.99 0.33-1.98 0.66-3 1-0.19-1.65-0.38-3.29-0.56-4.94-0.11-0.91-0.21-1.83-0.32-2.77-0.04-0.76-0.08-1.51-0.12-2.29l1-1z" fill="#706660"/>
<path transform="translate(68,315)" d="m0 0c2 2 2 2 2 4-9.12 0.15-9.12 0.15-12-1l-1-2c3.73-0.88 7.17-1.26 11-1z" fill="#F6622A"/>
<path transform="translate(146,225)" d="m0 0h12l1 3c-3.13 1.56-6.58 1.4-10 1l-3-2v-2z" fill="#F6672A"/>
<path transform="translate(953,176)" d="m0 0 2 1c0.06 3.79 0.09 7.58 0.12 11.4 0.02 1.08 0.04 2.16 0.06 3.27 0 1.03 0.01 2.06 0.02 3.12 0.01 0.96 0.02 1.91 0.03 2.89-0.23 2.34-0.23 2.34-2.23 4.34-0.92-5.97-0.99-11.5-0.56-17.5 0.05-0.82 0.1-1.64 0.16-2.49 0.12-2.01 0.26-4.01 0.4-6.01z" fill="#706660"/>
<path transform="translate(1312,157)" d="m0 0 2 1c-0.33 0.85-0.66 1.69-1 2.56-1.06 3.65-1.15 6.66-1 10.4-0.99 0.33-1.98 0.66-3 1l-1-1c0.37-5.43 1.24-9.21 4-14z" fill="#4A433F"/>
<path transform="translate(331,21)" d="m0 0 3 3-2 7h-1v-7h-2l-1 5-2-1c-0.62-2.06-0.62-2.06-1-4l6-3z" fill="#F6622A"/>
<path transform="translate(882,208)" d="m0 0c0.99 0.33 1.98 0.66 3 1 0.03 1.77 0.05 3.54 0.06 5.31 0.01 0.99 0.03 1.97 0.04 2.99-0.1 2.7-0.1 2.7-1.1 5.7h-2v-15z" fill="#6C625C"/>
<path transform="translate(695,182)" d="m0 0 1 2c-1.62 1.71-3.29 3.37-5 5h-2c-0.1 0.6-0.21 1.2-0.31 1.81-0.79 2.51-1.74 3.47-3.69 5.19l-2 2c0.51-4.36 1.91-6.49 4.88-9.69 1.04-1.15 1.04-1.15 2.11-2.32 2.01-1.99 2.01-1.99 5.01-3.99z" fill="#010101"/>
<path transform="translate(221,183)" d="m0 0c1.23 3.69 0.64 6.21 0 10h-3v-2h-4v-3h3l2-3h2v-2z" fill="#F6622A"/>
<path transform="translate(1150,146)" d="m0 0c5.66 0.14 8.44 2.7 12.5 6.31 1.54 1.69 1.54 1.69 1.54 3.69-4.28-0.48-6.1-3.03-9-6-1.65-1.03-3.31-2.04-5-3v-1z" fill="#010202"/>
<path transform="translate(705,145)" d="m0 0c2.97 0.5 2.97 0.5 6 1l1 3h-4l-1 10h-1l-1-14z" fill="#706660"/>
<path transform="translate(54,22)" d="m0 0c-4.27 1.17-7.66 0.66-12 0-0.99 0.5-0.99 0.5-2 1-2.33 0.04-4.67 0.04-7 0v-1c6.82-2.02 14.8-4.16 21 0z" fill="#F5672B"/>
<path transform="translate(135,173)" d="m0 0h1c0.22 2.29 0.43 4.58 0.62 6.88 0.12 1.27 0.24 2.55 0.36 3.86 0 1.08 0.01 2.15 0.02 3.26l-2 2c-1.69-1.81-1.69-1.81-3-5 0.64-3.79 1.76-7.37 3-11z" fill="#F6622A"/>
<path transform="translate(314,137)" d="m0 0-2 6c-3.06-1.74-5.63-3.38-8-6 3.58-1.24 6.34-0.75 10 0z" fill="#F6672C"/>
<path transform="translate(594,190)" d="m0 0h11l1 3h-13l1-3z" fill="#685C56"/>
<path transform="translate(217,172)" d="m0 0 2 1c0.12 6.75 0.12 6.75-1 9-0.99-0.33-1.98-0.66-3-1-1.21-2.92-1.11-5.07 0-8l2-1z" fill="#F6622A"/>
<path transform="translate(818,188)" d="m0 0h1l1 5h2v7l-4 1v-13z" fill="#6D635D"/>
<path transform="translate(75,151)" d="m0 0v2l-12 6-1-2c1.96-1.96 3.49-2.89 5.94-4.12 0.69-0.36 1.38-0.71 2.09-1.08 1.97-0.8 1.97-0.8 4.97-0.8z" fill="#F4632A"/>
<path transform="translate(1330,146)" d="m0 0c-2.94 2.5-5.18 3.47-9 4l-1 3c-1.96 1.4-3.95 2.74-6 4 1.35-3.09 2.79-4.97 5.38-7.12 0.58-0.5 1.17-1 1.77-1.51 4.96-3.67 4.96-3.67 8.85-2.37z" fill="#080808"/>
<path transform="translate(33,65)" d="m0 0h1l1 17c-0.99 0.33-1.98 0.66-3 1 0.49-8.91 0.49-8.91 1-18z" fill="#F3672B"/>
<path transform="translate(682,198)" d="m0 0 2 1c0.86 3.23 1.31 5.22 0.06 8.38-0.35 0.53-0.7 1.07-1.06 1.62h-2c-1.26-4.29-0.63-6.88 1-11z" fill="#645B56"/>
<path transform="translate(223,183)" d="m0 0c0.27 0.64 0.54 1.28 0.81 1.94 1.08 2.39 1.08 2.39 4.19 3.06l-2 4-4-1-1-5h2v-3z" fill="#F3672B"/>
<path transform="translate(1468,145)" d="m0 0c6.52-0.37 6.52-0.37 8.94 1.5 0.35 0.5 0.7 0.99 1.06 1.5-0.99 0.33-1.98 0.66-3 1v2c-3.37-1.39-4.99-2.98-7-6z" fill="#706660"/>
<path transform="translate(93,250)" d="m0 0v9h-4c-0.97-3-1.22-5.04 0-8 3-1 3-1 4-1z" fill="#F3672B"/>
<path transform="translate(575,167)" d="m0 0c2.06 0.44 2.06 0.44 4 1-0.99 2.31-1.98 4.62-3 7l-4-1c1.88-5.88 1.88-5.88 3-7z" fill="#685C56"/>
<path transform="translate(1502,145)" d="m0 0c3.6 3.49 6.83 7.11 10 11h-3l-1-3h-2v-2l-4-1c-0.56-1.94-0.56-1.94-1-4l1-1z" fill="#121010"/>
<path transform="translate(181,70)" d="m0 0c2.97 0.5 2.97 0.5 6 1l1 6c-1.94-0.38-1.94-0.38-4-1l-1-2-4 1 2-5z" fill="#F96728"/>
<path transform="translate(201,206)" d="m0 0 5 1 1 7c-0.99 0.5-0.99 0.5-2 1l-1-2c-2.02-0.65-2.02-0.65-4-1l1-6z" fill="#FDFFFF"/>
<path transform="translate(954,144)" d="m0 0c4.05 1.23 7.44 2.7 11 5l-1 3c-1.49-0.76-2.96-1.53-4.44-2.31-0.82-0.43-1.64-0.86-2.49-1.3-2.07-1.39-2.07-1.39-3.07-4.39z" fill="#060607"/>
<path transform="translate(507,108)" d="m0 0c5.63 0.45 8.61 1.68 13 5-3.71 1.24-4.68 0.57-8.19-0.94-0.9-0.38-1.8-0.76-2.73-1.15-0.69-0.3-1.37-0.6-2.08-0.91v-2z" fill="#040404"/>
<path transform="translate(81,83)" d="m0 0-1 3c-0.99 0.33-1.98 0.66-3 1l-1 5c-1.06-1.88-1.06-1.88-2-4l1-2h-2v-3c3.29-0.8 4.71-1.1 8 0z" fill="#F6672C"/>
<path transform="translate(168,65)" d="m0 0v2l2 1h-3v2h-2v-2c-0.76 0.21-1.53 0.41-2.31 0.62-2.69 0.38-2.69 0.38-5.69-1.62 7.62-2 7.62-2 11-2z" fill="#F3672B"/>
<path transform="translate(1554,145)" d="m0 0 1 4c-0.97 0.62-1.94 1.24-2.94 1.88-3.09 1.78-3.09 1.78-4.06 4.12h-2l-1 2c0-3 0-3 1.97-5.26 1.25-1.2 1.25-1.2 2.53-2.43 0.84-0.81 1.67-1.61 2.53-2.45 0.65-0.61 1.3-1.23 1.97-1.86z" fill="#181615"/>
<path transform="translate(267,251)" d="m0 0h2c1.23 6.4 1.23 6.4 0.06 9.44-0.35 0.51-0.7 1.03-1.06 1.56-1.98-2.92-1.99-4.12-1.62-7.75 0.2-1.07 0.41-2.15 0.62-3.25z" fill="#F6642B"/>
<path transform="translate(1476,229)" d="m0 0 1 3h-2l-1 3c-1.31 1.35-2.65 2.69-4 4l-1 2h-2c0.55-3.88 2.28-5.6 5.06-8.25 0.74-0.71 1.47-1.41 2.23-2.14 0.56-0.53 1.13-1.06 1.71-1.61z" fill="#010102"/>
<path transform="translate(1548,183)" d="m0 0c2.62 0.38 2.62 0.38 5 1-4.75 4.88-4.75 4.88-7 6l-2-1c1.15-2.47 2.05-4.05 4-6z" fill="#685C56"/>
<path transform="translate(92,182)" d="m0 0c1.75 1.5 1.75 1.5 3 3-6.62 2.12-6.62 2.12-10 1v-2c3-2 3-2 7-2z" fill="#F3672B"/>
<path transform="translate(968,233)" d="m0 0v10h-3c-1.07-3.22-0.8-3.9 0-7l-1-2c3-1 3-1 4-1z" fill="#6C615D"/>
<path transform="translate(1024,227)" d="m0 0c2.47 0.5 2.47 0.5 5 1l2 6c-0.99 0.5-0.99 0.5-2 1-0.45-0.66-0.91-1.32-1.38-2-0.53-0.66-1.07-1.32-1.62-2h-2v-4z" fill="#6C615D"/>
<path transform="translate(1024,232)" d="m0 0h2c0.2 3.63-0.14 5.87-2 9l-4-1 1-2h2c-0.02-0.8-0.04-1.61-0.06-2.44 0.06-2.56 0.06-2.56 1.06-3.56z" fill="#6C615D"/>
<path transform="translate(207 225)" d="m0 0c0.81 0.11 1.62 0.22 2.45 0.34 0.92 0.14 0.92 0.14 1.86 0.28-1.2 1.56-1.2 1.56-3 3-2.26-0.14-2.26-0.14-4.69-0.81-1.21-0.32-1.21-0.32-2.44-0.64-0.93-0.27-0.93-0.27-1.87-0.55 3.36-2.23 3.91-2.17 7.69-1.62z" fill="#F66229"/>
<path transform="translate(1219,193)" d="m0 0c0.99 0.33 1.98 0.66 3 1v10h-2c-1.28-3.85-1.07-6.95-1-11z" fill="#706660"/>
<path transform="translate(111,158)" d="m0 0 2 1c-1.06 2.44-1.06 2.44-3 5-3.69 0.81-3.69 0.81-7 1v-2c1.68-1.32 1.68-1.32 3.88-2.69 0.71-0.46 1.43-0.91 2.17-1.38 0.65-0.31 1.29-0.62 1.95-0.93z" fill="#F66C33"/>
<path transform="translate(775,146)" d="M0 0 C5.97 0.29 8.89 3.03 13 7 C8.27 7 4.49 4.35 1.06 1.25 C0.54 0.63 0.54 0.63 0 0 Z " fill="#000102"/>
<path transform="translate(1031,158)" d="m0 0 3 3-1 2-2-5z"/>
<path transform="translate(793,161)" d="m0 0 2 2-1 3-1-5z"/>
<path transform="translate(335,15)" d="m0 0 2 1z"/>
</svg>
